<svg width="40" height="40" viewBox="0 0 40 40" fill="none" xmlns="http://www.w3.org/2000/svg">
<circle cx="20" cy="20" r="20" fill="#E4AB39"/>
<path d="M12 28.998H15.0241V18.5151L12 19.2708V28.998ZM12.9961 20.595H13.9922V23.1589H12.9961V20.595ZM12.9961 24.9692H13.9922V28.0019H12.9961V24.9692Z" fill="white"/>
<path d="M25.9756 15.7621V28.9978H28.9998V15.0063L25.9756 15.7621ZM28.0037 28.0017H27.0076V24.9689H28.0037V28.0017ZM28.0037 23.3151H27.0076V21.9568H28.0037V23.3151ZM28.0037 20.3076H27.0076V17.7436H28.0037V20.3076Z" fill="white"/>
<path d="M19.0254 25.9639H20.002V28.9976H19.0254V25.9639Z" fill="white"/>
<path d="M16.0205 28.9977H18.0294V24.9648H22.9708V28.9977H24.9797V12.002L16.0205 15.0157V28.9977ZM21.9747 15.09H22.9708V17.7879H21.9747V15.09ZM21.9747 19.4387H22.9708V20.7972H21.9747V19.4387ZM21.9747 22.4463H22.9708V23.8047H21.9747V22.4463ZM20.0021 15.7681H20.9982V17.7962H20.0021V15.7681ZM20.0021 19.4471H20.9982V20.8056H20.0021V19.4471ZM20.0021 22.4546H20.9982V23.8131H20.0021V22.4546ZM18.0294 16.4294H19.0255V17.7879H18.0294V16.4294ZM18.0294 19.4387H19.0255V20.7972H18.0294V19.4387ZM18.0294 22.4463H19.0255V23.8047H18.0294V22.4463Z" fill="white"/>
<path d="M20.998 25.9639H21.9746V28.9976H20.998V25.9639Z" fill="white"/>
</svg>
