<svg width="40" height="40" viewBox="0 0 40 40" fill="none" xmlns="http://www.w3.org/2000/svg">
<circle cx="20" cy="20" r="20" fill="#E4AB39"/>
<mask id="path-2-outside-1_4_2447" maskUnits="userSpaceOnUse" x="9" y="9" width="22" height="20" fill="black">
<rect fill="white" x="9" y="9" width="22" height="20"/>
<path d="M28.3334 12H26.6668V11.3333C26.6668 10.9797 26.5263 10.6406 26.2762 10.3905C26.0262 10.1405 25.687 10 25.3334 10C24.9798 10 24.6407 10.1405 24.3906 10.3905C24.1406 10.6406 24.0001 10.9797 24.0001 11.3333V12H21.3334V11.3333C21.3334 10.9797 21.1929 10.6406 20.9429 10.3905C20.6928 10.1405 20.3537 10 20.0001 10C19.6464 10 19.3073 10.1405 19.0572 10.3905C18.8072 10.6406 18.6667 10.9797 18.6667 11.3333V12H16V11.3333C16 10.9797 15.8596 10.6406 15.6095 10.3905C15.3595 10.1405 15.0203 10 14.6667 10C14.3131 10 13.9739 10.1405 13.7239 10.3905C13.4738 10.6406 13.3334 10.9797 13.3334 11.3333V12H11.6667C11.2246 12 10.8007 12.1756 10.4882 12.4882C10.1756 12.8007 10 13.2247 10 13.6667V27.0001C10 27.4421 10.1756 27.866 10.4882 28.1786C10.8007 28.4912 11.2246 28.6668 11.6667 28.6668H21.0001C21.0885 28.6668 21.1732 28.6316 21.2358 28.5691C21.2983 28.5066 21.3334 28.4218 21.3334 28.3334C21.3334 28.245 21.2983 28.1602 21.2358 28.0977C21.1732 28.0352 21.0885 28.0001 21.0001 28.0001H11.6667C11.4017 27.9993 11.1478 27.8937 10.9604 27.7063C10.7731 27.519 10.6675 27.2651 10.6667 27.0001V16.6667H29.3334V22.3334C29.3334 22.4218 29.3686 22.5066 29.4311 22.5691C29.4936 22.6316 29.5784 22.6667 29.6668 22.6667C29.7552 22.6667 29.84 22.6316 29.9025 22.5691C29.965 22.5066 30.0001 22.4218 30.0001 22.3334V13.6667C30.0001 13.2247 29.8245 12.8007 29.5119 12.4882C29.1994 12.1756 28.7755 12 28.3334 12ZM24.6667 11.3333C24.6667 11.1565 24.737 10.987 24.862 10.8619C24.987 10.7369 25.1566 10.6667 25.3334 10.6667C25.5102 10.6667 25.6798 10.7369 25.8048 10.8619C25.9298 10.987 26.0001 11.1565 26.0001 11.3333V13.3334C26.0001 13.5102 25.9298 13.6797 25.8048 13.8048C25.6798 13.9298 25.5102 14 25.3334 14C25.1566 14 24.987 13.9298 24.862 13.8048C24.737 13.6797 24.6667 13.5102 24.6667 13.3334V11.3333ZM19.3334 11.3333C19.3334 11.1565 19.4036 10.987 19.5286 10.8619C19.6537 10.7369 19.8232 10.6667 20.0001 10.6667C20.1769 10.6667 20.3464 10.7369 20.4715 10.8619C20.5965 10.987 20.6667 11.1565 20.6667 11.3333V13.3334C20.6667 13.5102 20.5965 13.6797 20.4715 13.8048C20.3464 13.9298 20.1769 14 20.0001 14C19.8232 14 19.6537 13.9298 19.5286 13.8048C19.4036 13.6797 19.3334 13.5102 19.3334 13.3334V11.3333ZM14 11.3333C14 11.1565 14.0703 10.987 14.1953 10.8619C14.3203 10.7369 14.4899 10.6667 14.6667 10.6667C14.8435 10.6667 15.0131 10.7369 15.1381 10.8619C15.2631 10.987 15.3334 11.1565 15.3334 11.3333V13.3334C15.3334 13.5102 15.2631 13.6797 15.1381 13.8048C15.0131 13.9298 14.8435 14 14.6667 14C14.4899 14 14.3203 13.9298 14.1953 13.8048C14.0703 13.6797 14 13.5102 14 13.3334V11.3333ZM29.3334 16H10.6667V13.6667C10.6675 13.4017 10.7731 13.1478 10.9604 12.9604C11.1478 12.7731 11.4017 12.6675 11.6667 12.6667H13.3334V13.3334C13.3334 13.687 13.4738 14.0261 13.7239 14.2762C13.9739 14.5262 14.3131 14.6667 14.6667 14.6667C15.0203 14.6667 15.3595 14.5262 15.6095 14.2762C15.8596 14.0261 16 13.687 16 13.3334V12.6667H18.6667V13.3334C18.6667 13.687 18.8072 14.0261 19.0572 14.2762C19.3073 14.5262 19.6464 14.6667 20.0001 14.6667C20.3537 14.6667 20.6928 14.5262 20.9429 14.2762C21.1929 14.0261 21.3334 13.687 21.3334 13.3334V12.6667H24.0001V13.3334C24.0001 13.687 24.1406 14.0261 24.3906 14.2762C24.6407 14.5262 24.9798 14.6667 25.3334 14.6667C25.687 14.6667 26.0262 14.5262 26.2762 14.2762C26.5263 14.0261 26.6668 13.687 26.6668 13.3334V12.6667H28.3334C28.5984 12.6675 28.8523 12.7731 29.0397 12.9604C29.227 13.1478 29.3326 13.4017 29.3334 13.6667V16Z"/>
</mask>
<path d="M28.3334 12H26.6668V11.3333C26.6668 10.9797 26.5263 10.6406 26.2762 10.3905C26.0262 10.1405 25.687 10 25.3334 10C24.9798 10 24.6407 10.1405 24.3906 10.3905C24.1406 10.6406 24.0001 10.9797 24.0001 11.3333V12H21.3334V11.3333C21.3334 10.9797 21.1929 10.6406 20.9429 10.3905C20.6928 10.1405 20.3537 10 20.0001 10C19.6464 10 19.3073 10.1405 19.0572 10.3905C18.8072 10.6406 18.6667 10.9797 18.6667 11.3333V12H16V11.3333C16 10.9797 15.8596 10.6406 15.6095 10.3905C15.3595 10.1405 15.0203 10 14.6667 10C14.3131 10 13.9739 10.1405 13.7239 10.3905C13.4738 10.6406 13.3334 10.9797 13.3334 11.3333V12H11.6667C11.2246 12 10.8007 12.1756 10.4882 12.4882C10.1756 12.8007 10 13.2247 10 13.6667V27.0001C10 27.4421 10.1756 27.866 10.4882 28.1786C10.8007 28.4912 11.2246 28.6668 11.6667 28.6668H21.0001C21.0885 28.6668 21.1732 28.6316 21.2358 28.5691C21.2983 28.5066 21.3334 28.4218 21.3334 28.3334C21.3334 28.245 21.2983 28.1602 21.2358 28.0977C21.1732 28.0352 21.0885 28.0001 21.0001 28.0001H11.6667C11.4017 27.9993 11.1478 27.8937 10.9604 27.7063C10.7731 27.519 10.6675 27.2651 10.6667 27.0001V16.6667H29.3334V22.3334C29.3334 22.4218 29.3686 22.5066 29.4311 22.5691C29.4936 22.6316 29.5784 22.6667 29.6668 22.6667C29.7552 22.6667 29.84 22.6316 29.9025 22.5691C29.965 22.5066 30.0001 22.4218 30.0001 22.3334V13.6667C30.0001 13.2247 29.8245 12.8007 29.5119 12.4882C29.1994 12.1756 28.7755 12 28.3334 12ZM24.6667 11.3333C24.6667 11.1565 24.737 10.987 24.862 10.8619C24.987 10.7369 25.1566 10.6667 25.3334 10.6667C25.5102 10.6667 25.6798 10.7369 25.8048 10.8619C25.9298 10.987 26.0001 11.1565 26.0001 11.3333V13.3334C26.0001 13.5102 25.9298 13.6797 25.8048 13.8048C25.6798 13.9298 25.5102 14 25.3334 14C25.1566 14 24.987 13.9298 24.862 13.8048C24.737 13.6797 24.6667 13.5102 24.6667 13.3334V11.3333ZM19.3334 11.3333C19.3334 11.1565 19.4036 10.987 19.5286 10.8619C19.6537 10.7369 19.8232 10.6667 20.0001 10.6667C20.1769 10.6667 20.3464 10.7369 20.4715 10.8619C20.5965 10.987 20.6667 11.1565 20.6667 11.3333V13.3334C20.6667 13.5102 20.5965 13.6797 20.4715 13.8048C20.3464 13.9298 20.1769 14 20.0001 14C19.8232 14 19.6537 13.9298 19.5286 13.8048C19.4036 13.6797 19.3334 13.5102 19.3334 13.3334V11.3333ZM14 11.3333C14 11.1565 14.0703 10.987 14.1953 10.8619C14.3203 10.7369 14.4899 10.6667 14.6667 10.6667C14.8435 10.6667 15.0131 10.7369 15.1381 10.8619C15.2631 10.987 15.3334 11.1565 15.3334 11.3333V13.3334C15.3334 13.5102 15.2631 13.6797 15.1381 13.8048C15.0131 13.9298 14.8435 14 14.6667 14C14.4899 14 14.3203 13.9298 14.1953 13.8048C14.0703 13.6797 14 13.5102 14 13.3334V11.3333ZM29.3334 16H10.6667V13.6667C10.6675 13.4017 10.7731 13.1478 10.9604 12.9604C11.1478 12.7731 11.4017 12.6675 11.6667 12.6667H13.3334V13.3334C13.3334 13.687 13.4738 14.0261 13.7239 14.2762C13.9739 14.5262 14.3131 14.6667 14.6667 14.6667C15.0203 14.6667 15.3595 14.5262 15.6095 14.2762C15.8596 14.0261 16 13.687 16 13.3334V12.6667H18.6667V13.3334C18.6667 13.687 18.8072 14.0261 19.0572 14.2762C19.3073 14.5262 19.6464 14.6667 20.0001 14.6667C20.3537 14.6667 20.6928 14.5262 20.9429 14.2762C21.1929 14.0261 21.3334 13.687 21.3334 13.3334V12.6667H24.0001V13.3334C24.0001 13.687 24.1406 14.0261 24.3906 14.2762C24.6407 14.5262 24.9798 14.6667 25.3334 14.6667C25.687 14.6667 26.0262 14.5262 26.2762 14.2762C26.5263 14.0261 26.6668 13.687 26.6668 13.3334V12.6667H28.3334C28.5984 12.6675 28.8523 12.7731 29.0397 12.9604C29.227 13.1478 29.3326 13.4017 29.3334 13.6667V16Z" fill="white"/>
<path d="M28.3334 12H26.6668V11.3333C26.6668 10.9797 26.5263 10.6406 26.2762 10.3905C26.0262 10.1405 25.687 10 25.3334 10C24.9798 10 24.6407 10.1405 24.3906 10.3905C24.1406 10.6406 24.0001 10.9797 24.0001 11.3333V12H21.3334V11.3333C21.3334 10.9797 21.1929 10.6406 20.9429 10.3905C20.6928 10.1405 20.3537 10 20.0001 10C19.6464 10 19.3073 10.1405 19.0572 10.3905C18.8072 10.6406 18.6667 10.9797 18.6667 11.3333V12H16V11.3333C16 10.9797 15.8596 10.6406 15.6095 10.3905C15.3595 10.1405 15.0203 10 14.6667 10C14.3131 10 13.9739 10.1405 13.7239 10.3905C13.4738 10.6406 13.3334 10.9797 13.3334 11.3333V12H11.6667C11.2246 12 10.8007 12.1756 10.4882 12.4882C10.1756 12.8007 10 13.2247 10 13.6667V27.0001C10 27.4421 10.1756 27.866 10.4882 28.1786C10.8007 28.4912 11.2246 28.6668 11.6667 28.6668H21.0001C21.0885 28.6668 21.1732 28.6316 21.2358 28.5691C21.2983 28.5066 21.3334 28.4218 21.3334 28.3334C21.3334 28.245 21.2983 28.1602 21.2358 28.0977C21.1732 28.0352 21.0885 28.0001 21.0001 28.0001H11.6667C11.4017 27.9993 11.1478 27.8937 10.9604 27.7063C10.7731 27.519 10.6675 27.2651 10.6667 27.0001V16.6667H29.3334V22.3334C29.3334 22.4218 29.3686 22.5066 29.4311 22.5691C29.4936 22.6316 29.5784 22.6667 29.6668 22.6667C29.7552 22.6667 29.84 22.6316 29.9025 22.5691C29.965 22.5066 30.0001 22.4218 30.0001 22.3334V13.6667C30.0001 13.2247 29.8245 12.8007 29.5119 12.4882C29.1994 12.1756 28.7755 12 28.3334 12ZM24.6667 11.3333C24.6667 11.1565 24.737 10.987 24.862 10.8619C24.987 10.7369 25.1566 10.6667 25.3334 10.6667C25.5102 10.6667 25.6798 10.7369 25.8048 10.8619C25.9298 10.987 26.0001 11.1565 26.0001 11.3333V13.3334C26.0001 13.5102 25.9298 13.6797 25.8048 13.8048C25.6798 13.9298 25.5102 14 25.3334 14C25.1566 14 24.987 13.9298 24.862 13.8048C24.737 13.6797 24.6667 13.5102 24.6667 13.3334V11.3333ZM19.3334 11.3333C19.3334 11.1565 19.4036 10.987 19.5286 10.8619C19.6537 10.7369 19.8232 10.6667 20.0001 10.6667C20.1769 10.6667 20.3464 10.7369 20.4715 10.8619C20.5965 10.987 20.6667 11.1565 20.6667 11.3333V13.3334C20.6667 13.5102 20.5965 13.6797 20.4715 13.8048C20.3464 13.9298 20.1769 14 20.0001 14C19.8232 14 19.6537 13.9298 19.5286 13.8048C19.4036 13.6797 19.3334 13.5102 19.3334 13.3334V11.3333ZM14 11.3333C14 11.1565 14.0703 10.987 14.1953 10.8619C14.3203 10.7369 14.4899 10.6667 14.6667 10.6667C14.8435 10.6667 15.0131 10.7369 15.1381 10.8619C15.2631 10.987 15.3334 11.1565 15.3334 11.3333V13.3334C15.3334 13.5102 15.2631 13.6797 15.1381 13.8048C15.0131 13.9298 14.8435 14 14.6667 14C14.4899 14 14.3203 13.9298 14.1953 13.8048C14.0703 13.6797 14 13.5102 14 13.3334V11.3333ZM29.3334 16H10.6667V13.6667C10.6675 13.4017 10.7731 13.1478 10.9604 12.9604C11.1478 12.7731 11.4017 12.6675 11.6667 12.6667H13.3334V13.3334C13.3334 13.687 13.4738 14.0261 13.7239 14.2762C13.9739 14.5262 14.3131 14.6667 14.6667 14.6667C15.0203 14.6667 15.3595 14.5262 15.6095 14.2762C15.8596 14.0261 16 13.687 16 13.3334V12.6667H18.6667V13.3334C18.6667 13.687 18.8072 14.0261 19.0572 14.2762C19.3073 14.5262 19.6464 14.6667 20.0001 14.6667C20.3537 14.6667 20.6928 14.5262 20.9429 14.2762C21.1929 14.0261 21.3334 13.687 21.3334 13.3334V12.6667H24.0001V13.3334C24.0001 13.687 24.1406 14.0261 24.3906 14.2762C24.6407 14.5262 24.9798 14.6667 25.3334 14.6667C25.687 14.6667 26.0262 14.5262 26.2762 14.2762C26.5263 14.0261 26.6668 13.687 26.6668 13.3334V12.6667H28.3334C28.5984 12.6675 28.8523 12.7731 29.0397 12.9604C29.227 13.1478 29.3326 13.4017 29.3334 13.6667V16Z" stroke="white" stroke-width="0.2" mask="url(#path-2-outside-1_4_2447)"/>
<path d="M19.3837 18.9997C19.3837 18.8096 19.3082 18.6273 19.1738 18.4929C19.0394 18.3585 18.8571 18.283 18.667 18.283H17.3337C17.1436 18.283 16.9613 18.3585 16.8269 18.4929C16.6925 18.6273 16.617 18.8096 16.617 18.9997V19.9997C16.617 20.1898 16.6925 20.372 16.8269 20.5064C16.9613 20.6408 17.1436 20.7164 17.3337 20.7164H18.667C18.8571 20.7164 19.0394 20.6408 19.1738 20.5064C19.3082 20.372 19.3837 20.1898 19.3837 19.9997V18.9997ZM17.3837 19.9497V19.0497H18.617V19.9497H17.3837Z" fill="white" stroke="white" stroke-width="0.1"/>
<path d="M15.3827 18.9997C15.3827 18.8096 15.3072 18.6273 15.1728 18.4929C15.0384 18.3585 14.8561 18.283 14.666 18.283H13.3327C13.1426 18.283 12.9603 18.3585 12.8259 18.4929C12.6915 18.6273 12.616 18.8096 12.616 18.9997V19.9997C12.616 20.1898 12.6915 20.372 12.8259 20.5064C12.9603 20.6408 13.1426 20.7164 13.3327 20.7164H14.666C14.8561 20.7164 15.0384 20.6408 15.1728 20.5064C15.3072 20.372 15.3827 20.1898 15.3827 19.9997V18.9997ZM13.3827 19.9497V19.0497H14.616V19.9497H13.3827Z" fill="white" stroke="white" stroke-width="0.1"/>
<path d="M26.667 20.7164C26.8571 20.7164 27.0394 20.6408 27.1738 20.5064C27.3082 20.372 27.3837 20.1898 27.3837 19.9997V18.9997C27.3837 18.8096 27.3082 18.6273 27.1738 18.4929C27.0394 18.3585 26.8571 18.283 26.667 18.283H25.3337C25.1436 18.283 24.9613 18.3585 24.8269 18.4929C24.6925 18.6273 24.617 18.8096 24.617 18.9997V19.9997C24.617 20.1898 24.6925 20.372 24.8269 20.5064C24.9613 20.6408 25.1436 20.7164 25.3337 20.7164H26.667ZM25.3837 19.0497H26.617V19.9497H25.3837V19.0497Z" fill="white" stroke="white" stroke-width="0.1"/>
<path d="M19.3837 22.0002C19.3837 21.8101 19.3082 21.6278 19.1738 21.4934C19.0394 21.359 18.8571 21.2835 18.667 21.2835H17.3337C17.1436 21.2835 16.9613 21.359 16.8269 21.4934C16.6925 21.6278 16.617 21.8101 16.617 22.0002V23.0002C16.617 23.1902 16.6925 23.3725 16.8269 23.5069C16.9613 23.6413 17.1436 23.7168 17.3337 23.7168H18.667C18.8571 23.7168 19.0394 23.6413 19.1738 23.5069C19.3082 23.3725 19.3837 23.1902 19.3837 23.0002V22.0002ZM17.3837 22.9502V22.0502H18.617V22.9502H17.3837Z" fill="white" stroke="white" stroke-width="0.1"/>
<path d="M15.3827 22.0002C15.3827 21.8101 15.3072 21.6278 15.1728 21.4934C15.0384 21.359 14.8561 21.2835 14.666 21.2835H13.3327C13.1426 21.2835 12.9603 21.359 12.8259 21.4934C12.6915 21.6278 12.616 21.8101 12.616 22.0002V23.0002C12.616 23.1902 12.6915 23.3725 12.8259 23.5069C12.9603 23.6413 13.1426 23.7168 13.3327 23.7168H14.666C14.8561 23.7168 15.0384 23.6413 15.1728 23.5069C15.3072 23.3725 15.3827 23.1902 15.3827 23.0002V22.0002ZM13.3827 22.9502V22.0502H14.616V22.9502H13.3827Z" fill="white" stroke="white" stroke-width="0.1"/>
<path d="M18.667 24.2835H17.3337C17.1436 24.2835 16.9613 24.359 16.8269 24.4934C16.6925 24.6278 16.617 24.8101 16.617 25.0002V26.0002C16.617 26.1902 16.6925 26.3725 16.8269 26.5069C16.9613 26.6413 17.1436 26.7168 17.3337 26.7168H18.667C18.8571 26.7168 19.0394 26.6413 19.1738 26.5069C19.3082 26.3725 19.3837 26.1902 19.3837 26.0002V25.0002C19.3837 24.8101 19.3082 24.6278 19.1738 24.4934C19.0394 24.359 18.8571 24.2835 18.667 24.2835ZM17.3837 25.9502V25.0502H18.617V25.9502H17.3837Z" fill="white" stroke="white" stroke-width="0.1"/>
<path d="M21.3327 20.7164H22.666C22.8561 20.7164 23.0384 20.6408 23.1728 20.5064C23.3072 20.372 23.3827 20.1898 23.3827 19.9997V18.9997C23.3827 18.8096 23.3072 18.6273 23.1728 18.4929C23.0384 18.3585 22.8561 18.283 22.666 18.283H21.3327C21.1426 18.283 20.9603 18.3585 20.8259 18.4929C20.6915 18.6273 20.616 18.8096 20.616 18.9997V19.9997C20.616 20.1898 20.6915 20.372 20.8259 20.5064C20.9603 20.6408 21.1426 20.7164 21.3327 20.7164ZM21.3827 19.0497H22.616V19.9497H21.3827V19.0497Z" fill="white" stroke="white" stroke-width="0.1"/>
<path d="M20.616 23.0002C20.616 23.1902 20.6915 23.3725 20.8259 23.5069C20.9603 23.6413 21.1426 23.7168 21.3327 23.7168C21.4344 23.7168 21.5319 23.6765 21.6037 23.6046C21.6756 23.5327 21.716 23.4352 21.716 23.3335C21.716 23.2318 21.6756 23.1343 21.6037 23.0624C21.5437 23.0024 21.4659 22.9644 21.3827 22.9534V22.0502H22.666C22.7677 22.0502 22.8652 22.0098 22.9371 21.9379C23.009 21.866 23.0494 21.7685 23.0494 21.6668C23.0494 21.5652 23.009 21.4677 22.9371 21.3958C22.8652 21.3239 22.7677 21.2835 22.666 21.2835H21.3327C21.1426 21.2835 20.9603 21.359 20.8259 21.4934C20.6915 21.6278 20.616 21.8101 20.616 22.0002V23.0002Z" fill="white" stroke="white" stroke-width="0.1"/>
<path d="M14.666 24.2835H13.3327C13.1426 24.2835 12.9603 24.359 12.8259 24.4934C12.6915 24.6278 12.616 24.8101 12.616 25.0002V26.0002C12.616 26.1902 12.6915 26.3725 12.8259 26.5069C12.9603 26.6413 13.1426 26.7168 13.3327 26.7168H14.666C14.8561 26.7168 15.0384 26.6413 15.1728 26.5069C15.3072 26.3725 15.3827 26.1902 15.3827 26.0002V25.0002C15.3827 24.8101 15.3072 24.6278 15.1728 24.4934C15.0384 24.359 14.8561 24.2835 14.666 24.2835ZM13.3827 25.9502V25.0502H14.616V25.9502H13.3827Z" fill="white" stroke="white" stroke-width="0.1"/>
<path d="M25.6664 21.2835H25.6664C24.7994 21.2835 23.9519 21.5406 23.2311 22.0222C22.5103 22.5039 21.9484 23.1885 21.6167 23.9894C21.2849 24.7904 21.1981 25.6717 21.3672 26.522C21.5364 27.3723 21.9538 28.1533 22.5669 28.7664C23.1799 29.3794 23.9609 29.7969 24.8112 29.966C25.6615 30.1351 26.5429 30.0483 27.3438 29.7165C28.1448 29.3848 28.8293 28.823 29.311 28.1021C29.7926 27.3813 30.0497 26.5338 30.0497 25.6669V25.6668C30.0484 24.5047 29.5861 23.3906 28.7644 22.5688C27.9427 21.7471 26.8285 21.2848 25.6664 21.2835ZM25.6663 29.2835C24.951 29.2835 24.2518 29.0714 23.657 28.674C23.0623 28.2766 22.5987 27.7118 22.325 27.0509C22.0512 26.39 21.9796 25.6628 22.1192 24.9613C22.2587 24.2597 22.6032 23.6153 23.109 23.1095C23.6148 22.6037 24.2592 22.2592 24.9608 22.1197C25.6624 21.9801 26.3895 22.0517 27.0504 22.3255C27.7113 22.5992 28.2761 23.0628 28.6735 23.6575C29.0709 24.2523 29.283 24.9515 29.2831 25.6668C29.2819 26.6257 28.9005 27.5449 28.2225 28.223C27.5445 28.901 26.6252 29.2824 25.6663 29.2835Z" fill="white" stroke="white" stroke-width="0.1"/>
<path d="M27.558 24.2339L27.558 24.2339L27.5574 24.2345L25.0001 26.7918L23.8571 25.6485L23.8571 25.6485L23.8565 25.6479C23.7842 25.5781 23.6874 25.5394 23.5868 25.5403C23.4863 25.5412 23.3902 25.5815 23.3191 25.6526C23.248 25.7236 23.2077 25.8198 23.2069 25.9203C23.206 26.0208 23.2446 26.1176 23.3144 26.1899L23.3144 26.1899L23.315 26.1905L24.7291 27.6049L24.7291 27.6049C24.801 27.6768 24.8984 27.7171 25.0001 27.7171C25.1017 27.7171 25.1992 27.6768 25.2711 27.6049L25.2711 27.6049L28.0995 24.7765L28.0995 24.7765L28.1001 24.7759C28.1699 24.7036 28.2085 24.6068 28.2077 24.5063C28.2068 24.4058 28.1665 24.3096 28.0954 24.2385C28.0243 24.1675 27.9282 24.1272 27.8277 24.1263C27.7272 24.1254 27.6303 24.164 27.558 24.2339Z" fill="white" stroke="white" stroke-width="0.1"/>
</svg>
