<svg width="40" height="40" viewBox="0 0 40 40" fill="none" xmlns="http://www.w3.org/2000/svg">
<circle cx="20" cy="20" r="20" fill="#E4AB39"/>
<path d="M27.9269 12.0664C25.9513 10.0977 23.3171 9.00391 20.5367 9.00391C14.7562 9.00391 10.0732 13.6706 10.0732 19.431C10.0732 21.2539 10.5854 23.0768 11.4635 24.6081C11.4635 24.6081 12.3481 26.4995 13.3334 27.3333C14.0894 27.9731 15.561 28.5456 15.561 28.5456C17.0976 29.3477 18.7806 29.7852 20.5367 29.7852C26.3171 29.7852 31.0001 25.1185 31.0001 19.3581C30.9269 16.6602 29.9025 14.0352 27.9269 12.0664ZM25.5854 23.1497C25.3659 23.7331 24.3415 24.3164 23.8293 24.3893C23.3903 24.4622 22.8049 24.4622 22.2196 24.3164C21.8537 24.1706 21.3415 24.0247 20.7562 23.7331C18.122 22.6393 16.4391 20.0143 16.2928 19.7956C16.1464 19.6497 15.1952 18.4102 15.1952 17.0977C15.1952 15.7852 15.8537 15.2018 16.0732 14.9102C16.2928 14.6185 16.5854 14.6185 16.8049 14.6185C16.9513 14.6185 17.1708 14.6185 17.3171 14.6185C17.4635 14.6185 17.683 14.5456 17.9025 15.056C18.122 15.5664 18.6342 16.8789 18.7074 16.9518C18.7806 17.0977 18.7806 17.2435 18.7074 17.3893C18.6342 17.5352 18.561 17.681 18.4147 17.8268C18.2684 17.9727 18.122 18.1914 18.0488 18.2643C17.9025 18.4102 17.7562 18.556 17.9025 18.7747C18.0489 19.0664 18.561 19.8685 19.3659 20.5977C20.3903 21.4727 21.1952 21.7643 21.4879 21.9102C21.7806 22.056 21.9269 21.9831 22.0732 21.8372C22.2196 21.6914 22.7318 21.1081 22.8781 20.8164C23.0245 20.5247 23.244 20.5977 23.4635 20.6706C23.683 20.7435 25.0001 21.3997 25.2196 21.5456C25.5123 21.6914 25.6586 21.7643 25.7318 21.8372C25.8049 22.056 25.8049 22.5664 25.5854 23.1497Z" fill="white"/>
</svg>
