<svg width="174" height="175" viewBox="0 0 174 175" fill="none" xmlns="http://www.w3.org/2000/svg">
<g clip-path="url(#clip0_21_1014)">
<path d="M85.8344 85.2668C86.6491 86.0847 87.2656 87.0777 87.6367 88.17C88.0078 89.2623 88.1237 90.4248 87.9755 91.5686C87.5363 95.6238 82.8973 98.1719 81.8817 103.487C81.6626 104.082 81.6015 104.723 81.7042 105.349C81.8069 105.974 82.0701 106.562 82.468 107.056C82.8659 107.55 83.3851 107.932 83.975 108.166C84.5649 108.4 85.2055 108.478 85.8344 108.392C85.2873 108.837 84.6536 109.165 83.9732 109.354C83.2928 109.542 82.5807 109.588 81.8817 109.488C80.9108 109.27 80.0579 108.695 79.4931 107.878C78.9283 107.06 78.6932 106.06 78.8348 105.077C78.298 105.885 78.0468 106.849 78.1212 107.816C78.4686 109.075 79.2964 110.147 80.4269 110.803C79.5862 110.782 78.7664 110.537 78.0522 110.094C77.338 109.651 76.7553 109.026 76.3644 108.282C75.7532 106.723 75.6008 105.021 75.9252 103.378C76.3618 101.821 77.0577 100.348 77.9839 99.0213C77.047 99.323 76.0387 99.323 75.1017 99.0213C74.455 98.785 73.8906 98.3669 73.4766 97.8176C73.0625 97.2682 72.8167 96.6109 72.7686 95.9251C73.6705 96.5161 74.7269 96.8287 75.8058 96.8238C76.8847 96.8189 77.9383 96.4968 78.8348 95.8978C80.0426 95.2402 84.3247 90.9659 82.8973 86.308C82.0739 83.7324 85.8344 85.2668 85.8344 85.2668Z" fill="#353535"/>
<path d="M94.6182 163.026C93.9296 162.986 93.248 162.867 92.5869 162.67C90.5557 162.067 82.7601 159.601 77.5447 158.615C73.2124 158.084 68.8172 158.748 64.8357 160.533C67.1259 152.765 68.959 144.869 70.3255 136.887C71.3137 129.078 65.714 119.79 61.8986 123.188C58.2266 126.51 55.6116 130.835 54.3775 135.627C49.8758 148.779 51.6326 162.177 52.209 167.301C52.7854 172.424 54.2951 172.78 60.6085 172.561C66.263 172.26 86.9324 168.999 94.8378 169.027C94.8378 168.232 95.0848 167.465 95.1672 166.835C95.2261 165.542 95.0398 164.25 94.6182 163.026Z" fill="#D3A197"/>
<path d="M98.5709 169.219C105.159 171.52 110.237 173.74 113.723 172.972C118.334 171.986 112.076 169.657 110.1 168.452C107.941 166.999 106.169 165.043 104.939 162.752C104.472 161.958 102.194 159.163 99.5865 161.465C98.9024 162.039 98.1112 162.473 97.2586 162.741C96.4059 163.009 95.5086 163.106 94.6182 163.026C95.0516 164.229 95.2564 165.502 95.222 166.78C95.222 167.41 95.0299 168.178 94.8927 168.972C96.1241 168.917 97.3579 168.999 98.5709 169.219Z" fill="#D3A197"/>
<path d="M51.2486 13.3709C48.8727 17.1844 47.7055 21.625 47.8997 26.1116C48.1988 28.9879 48.7967 31.8253 49.6839 34.578C49.6839 34.578 54.5974 34.7972 54.3778 34.0849C54.1582 33.3725 57.1227 17.0972 56.6012 14.3847C56.0796 11.6721 54.3229 10.2474 51.2486 13.3709Z" fill="#E5C3B7"/>
<path d="M79.2196 83.4037C80.4 82.5269 84.0507 75.1838 83.4743 72.9919C83.4743 72.9919 83.4743 72.0877 80.7293 70.7725C79.8614 70.4677 78.9415 70.3374 78.0229 70.3892C77.1042 70.4409 76.2049 70.6736 75.3767 71.0739C74.9594 71.3144 74.4861 71.441 74.0043 71.441C73.5224 71.441 73.0491 71.3144 72.6318 71.0739C71.579 70.6149 70.4561 70.337 69.3104 70.252C68.734 70.252 69.0085 71.4301 68.8712 71.8959C68.734 72.3617 68.3223 72.8275 67.8007 72.6357C67.2792 72.4439 67.2517 72.8823 67.1419 73.3207C66.7027 73.1837 66.5929 73.3207 66.4557 73.7865C66.3185 74.2523 66.4557 74.1975 65.6871 74.3619C64.9185 74.5263 64.5892 76.1428 65.0283 77.1018C65.4675 78.0608 65.6322 78.3074 65.8244 78.691C66.0165 79.0746 67.087 80.6363 67.3615 80.9925C67.7081 81.4281 67.8827 81.9753 67.8523 82.5307C67.822 83.0861 67.5888 83.6111 67.1968 84.0065C66.3368 84.9861 65.241 85.731 64.0127 86.171C62.9027 87.2901 61.6131 88.2161 60.1973 88.911L66.9498 97.1308C66.7851 96.1992 67.8556 93.8976 67.8831 93.3497C67.9886 92.2868 68.3641 91.2684 68.9742 90.391C69.5842 89.5136 70.4086 88.8061 71.3691 88.3356C74.21 87.0771 76.8541 85.416 79.2196 83.4037Z" fill="#E5C3B7"/>
<path d="M63.1334 86.5545C64.7186 86.0731 66.1546 85.196 67.3057 84.0064C67.6977 83.611 67.9309 83.086 67.9612 82.5306C67.9916 81.9753 67.817 81.428 67.4704 80.9925C67.1959 80.6363 65.9333 78.6909 65.9333 78.6909C66.2363 79.2139 66.3794 79.8139 66.345 80.4171C66.345 80.8829 65.3019 83.6228 60.114 84.4722C60.0591 86.6367 63.1334 86.5545 63.1334 86.5545Z" fill="#D3A197"/>
<path d="M81.7723 71.4575C80.1775 72.746 78.7402 74.2174 77.4902 75.8414C76.7232 77.1271 76.4046 78.6302 76.5844 80.1157C78.2039 80.4171 78.8078 81.4309 78.7529 82.0611C78.6691 82.5232 78.4576 82.9527 78.1424 83.3012C77.8272 83.6498 77.4206 83.9035 76.9687 84.0338C76.1509 84.1708 75.316 84.1708 74.4982 84.0338C74.4982 84.0338 72.2748 87.1848 71.1494 88.3903C72.3559 88.3817 73.5388 88.7245 74.5531 89.3767C76.575 90.2849 78.8603 90.4214 80.9763 89.7603C82.259 89.4254 83.4557 88.8223 84.4873 87.991C85.5189 87.1596 86.3618 86.119 86.9602 84.938C88.3876 82.1981 89.5405 76.1154 81.7723 71.4575Z" fill="#444444"/>
<path d="M60.6636 32.0298C60.6636 32.0298 59.2362 41.4004 57.6441 52.0588C57.3422 53.9767 59.7852 84.938 59.7852 84.938L47.8447 94.9662C49.0339 89.7832 49.7233 84.4984 49.9034 79.1842C49.6564 73.8687 47.8447 65.4845 49.4093 57.4016C50.4799 51.9218 54.2404 32.934 54.2404 32.934L60.6636 32.0298Z" fill="#D3A197"/>
<path d="M15.674 162.396C15.6343 162.999 15.4217 163.578 15.0616 164.064C14.7014 164.55 14.2089 164.922 13.6428 165.136C9.66261 166.698 3.34928 168.315 1.48272 169.301C-0.38383 170.287 -1.26221 173.027 3.15713 173.027C7.57647 173.027 12.6271 172.616 15.125 172.616C18.364 172.452 21.905 174.096 24.4852 171.849C25.5832 170.89 23.799 165.876 23.7441 164.122C23.7441 163.766 23.7441 163.383 23.7441 162.972C22.3416 163.504 20.8527 163.773 19.3522 163.766C18.018 163.68 16.7387 163.204 15.674 162.396Z" fill="#E5C3B7"/>
<path d="M55.1738 32.7149C55.1738 32.7149 57.1776 25.4541 57.6168 24.4951C58.851 22.4244 60.6635 20.7581 62.8322 19.7002C66.2908 18.8234 66.4006 20.1386 65.5771 22.8237C64.7536 25.5089 60.2245 34.4685 60.2245 34.4685L55.1738 32.7149Z" fill="#D3A197"/>
<path d="M60.389 99.816C62.1538 100.72 64.0544 101.331 66.0161 101.624C66.2631 101.186 66.5101 100.748 66.7297 100.309C68.0481 97.3336 68.3002 93.9957 67.4434 90.8564C66.9919 89.2882 66.3946 87.7655 65.6592 86.3081C63.8476 82.6092 60.0321 75.595 60.0321 70.8549C59.9236 63.6365 59.2629 56.4369 58.0558 49.3189C56.5341 42.8173 55.4792 36.2155 54.8991 29.564L48.8877 31.3175C48.8877 31.3175 49.0249 46.4694 49.5465 51.5931C50.068 56.7168 51.2209 61.9775 52.0718 68.9917C52.6208 73.6222 53.9933 81.9242 51.9346 86.9109C52.3289 89.543 53.2886 92.059 54.7478 94.2864C56.2071 96.5138 58.1314 98.4001 60.389 99.816Z" fill="#E5C3B7"/>
<path d="M60.6904 24.9883C60.6904 25.2349 61.0747 27.4816 63.0236 27.372C64.9725 27.2624 68.6233 24.6595 65.8784 23.0977C63.1334 21.5359 60.6904 24.9883 60.6904 24.9883Z" fill="#E5C3B7"/>
<path d="M129.726 114.639C128.565 116.497 127.947 118.642 127.942 120.831C128.046 122.574 128.046 124.322 127.942 126.065H119.982C119.982 126.065 116.55 117.626 120.366 115.297C123.302 113.948 126.63 113.714 129.726 114.639Z" fill="#D3A197"/>
<path d="M94.6183 119.461C94.234 118.448 94.1242 117.845 92.9165 117.379C91.2245 116.533 89.9332 115.057 89.3206 113.269C88.5795 110.173 89.3206 109.598 89.3206 109.598C90.8303 107.652 98.9279 106.036 100.3 106.419C103.431 107.039 106.454 108.11 109.276 109.598C109.99 110.051 110.818 110.292 111.664 110.292C112.51 110.292 113.339 110.051 114.052 109.598L114.464 116.036C113.458 115.983 112.45 115.983 111.445 116.036C110.759 116.036 110.045 116.036 109.331 116.036C108.767 116.146 108.216 116.312 107.684 116.53C107.108 116.53 106.586 116.53 106.394 116.968C106.202 117.406 105.022 120.037 105.022 120.037C105.022 120.037 104.637 120.968 104.253 121.708C103.869 122.448 102.414 123.489 101.645 122.886C100.877 122.284 100.987 122.53 100.685 122.64C100.383 122.749 100.053 122.804 99.8886 122.366C99.4768 122.558 99.0925 122.859 98.9004 122.366C98.7083 121.873 98.4612 121.626 97.6652 121.955C96.8692 122.284 96.5123 123.051 96.0457 122.667C95.4005 121.682 94.9186 120.6 94.6183 119.461Z" fill="#E5C3B7"/>
<path d="M114.464 118.749C114.464 118.749 113.448 113.872 111.884 113.981C110.648 114.062 109.442 114.398 108.343 114.968C107.756 115.122 107.221 115.429 106.791 115.858C106.362 116.286 106.055 116.82 105.9 117.406C105.9 117.872 105.021 120.146 105.021 120.146C105.996 119.158 107.204 118.433 108.535 118.036C110.535 117.602 112.624 117.853 114.464 118.749Z" fill="#D3A197"/>
<path d="M101.316 93.6237C102.155 93.5764 102.99 93.7786 103.715 94.2046C104.439 94.6306 105.021 95.2613 105.387 96.0172C105.752 96.773 105.885 97.62 105.769 98.4513C105.653 99.2826 105.292 100.061 104.733 100.688C104.174 101.315 103.441 101.762 102.627 101.974C101.814 102.185 100.955 102.151 100.161 101.876C99.3665 101.601 98.6715 101.097 98.1638 100.428C97.656 99.7593 97.3583 98.955 97.3081 98.1172C97.271 97.5585 97.3456 96.9979 97.5277 96.4683C97.7098 95.9387 97.9957 95.4505 98.3687 95.0323C98.7417 94.6141 99.1944 94.2741 99.7003 94.0323C100.206 93.7904 100.755 93.6515 101.316 93.6237Z" fill="#353535"/>
<path d="M89.1284 111.926C91.1629 112.39 93.2453 112.611 95.3319 112.584C96.8521 112.395 98.2641 111.7 99.3395 110.611C98.5709 109.104 99.0101 108.008 99.5591 107.652C99.9815 107.405 100.468 107.289 100.957 107.318C101.445 107.347 101.914 107.521 102.304 107.816C102.958 108.372 103.507 109.04 103.924 109.789C103.924 109.789 107.849 109.543 109.413 109.789C108.653 108.827 108.186 107.667 108.068 106.447C107.527 104.23 106.201 102.284 104.335 100.967C103.233 100.154 101.97 99.587 100.63 99.3034C99.2898 99.0198 97.9044 99.0264 96.5671 99.3227C93.6301 99.7885 87.9755 102.748 89.1284 111.926Z" fill="#444444"/>
<path d="M124.73 166.04C124.73 166.04 124.73 162.451 124.73 162.396C125.334 156.724 122.946 146.943 121.793 142.367C120.27 136.7 119.686 130.823 120.064 124.968C122.752 125.23 125.466 125.072 128.106 124.503C128.353 127.681 127.804 129.763 127.887 132.723C127.916 138.225 128.338 143.719 129.149 149.162C129.745 154.53 129.855 159.94 129.479 165.328C129.479 165.602 129.479 169.356 129.479 169.63C128.453 169.465 127.484 169.052 126.656 168.426C125.828 167.8 125.166 166.981 124.73 166.04Z" fill="#232121"/>
<path d="M125.389 172.616C122.836 172.616 119.597 173.109 116.907 172.972C114.217 172.835 113.119 171.356 116.907 169.465C120.695 167.575 124.127 167.081 124.593 166.068C125.764 167.674 127.418 168.864 129.314 169.465C129.185 170.39 128.706 171.231 127.977 171.817C127.248 172.402 126.322 172.688 125.389 172.616Z" fill="#E5C3B7"/>
<path d="M114.464 127.955C113.531 127.791 112.625 127.599 111.719 127.407C111.005 122.749 108.727 115.379 111.362 110.31C112.826 107.521 114.789 105.023 117.154 102.939L126.843 106.173L129.588 114.639C125.771 117.429 122.806 121.224 121.024 125.599C120.716 126.379 120.451 127.174 120.228 127.983C118.31 128.156 116.38 128.146 114.464 127.955Z" fill="#E5C3B7"/>
<path d="M107.465 169.136C109.599 168.827 111.63 168.02 113.394 166.78C114.687 168.188 116.269 169.3 118.033 170.041C117.864 170.682 117.544 171.274 117.099 171.767C113.503 173.479 109.642 174.572 105.68 175C99.1749 175.082 101.81 170.369 107.465 169.136Z" fill="#E5C3B7"/>
<path d="M113.393 166.78V166.616C114.656 160.643 110.648 148.121 111.472 142.258C112.087 138.224 112.262 134.136 111.993 130.065C111.993 129.216 111.829 128.311 111.692 127.325C112.515 127.517 113.421 127.709 114.436 127.873C116.399 128.064 118.376 128.064 120.338 127.873C120.091 128.777 119.871 129.736 119.762 130.311C118.665 135.181 118.341 140.192 118.801 145.162C119.315 151.547 119.26 157.966 118.636 164.342C118.553 166.185 118.314 168.018 117.923 169.821C116.218 169.132 114.676 168.096 113.393 166.78Z" fill="#242424"/>
<path d="M122.506 76.3073C123.298 76.7121 124.137 77.0159 125.004 77.2114L118.279 66.3887C117.725 68.2748 117.844 70.2944 118.615 72.103C119.385 73.9117 120.761 75.3975 122.506 76.3073Z" fill="#E5C3B7"/>
<path d="M163.818 41.099C156.461 36.1671 129.781 18.5767 127.914 15.782C123.056 8.49372 119.679 2.41105 115.644 0.52049C110.154 -1.97286 114.766 5.09619 115.809 7.80873C116.853 10.8926 117.135 14.1824 116.633 17.3985C116.495 18.5493 116.633 23.0976 120.997 22.8784C122.557 22.8143 124.108 23.142 125.508 23.8313C126.909 24.5206 128.113 25.5495 129.012 26.8239C130.577 28.9885 136.506 37.3453 140.925 42.2772C144.85 46.097 149.749 48.7695 155.089 50.0038C155.089 50.0038 150.917 50.4696 145.509 51.593C136.661 52.4006 128.303 56.0104 121.656 61.8952C120.333 62.6806 119.228 63.784 118.441 65.1049C117.655 66.4257 117.213 67.9221 117.154 69.4574C116.276 76.0607 122.644 85.0203 128.957 84.5819C135.271 84.1435 129.753 78.965 131.702 76.1702C131.87 75.9396 132.064 75.7282 132.279 75.5401C137.247 73.0193 144.109 68.4984 151.246 65.7585C164.779 60.8266 168.649 57.9496 172.657 52.8534C174.825 50.0586 170.351 45.5925 163.818 41.099Z" fill="#E5C3B7"/>
<path d="M137.247 82.9927C137.247 82.6092 137.247 82.2804 137.055 81.9242C135.243 71.2384 134.036 65.0461 125.911 62.087C125.911 62.087 130.193 76.4443 124.84 77.1841C113.147 78.8006 123.056 60.2786 123.056 60.2786C121.128 60.0565 119.175 60.3215 117.376 61.0492C115.578 61.7769 113.991 62.944 112.762 64.4434C110.237 68.0601 108.316 77.4581 114.437 81.7872C116.331 83.1297 118.884 83.5955 120.476 85.8697C121.562 87.6043 122.071 89.6374 121.93 91.6783C121.795 93.0449 121.404 94.3741 120.778 95.5965C118.529 99.7848 115.978 103.805 113.147 107.625C113.147 107.625 121.381 104.885 124.126 110.036C125.555 112.573 126.069 115.523 125.581 118.393C129.097 117.294 132.265 115.302 134.777 112.611C137.307 110.001 138.809 106.567 139.004 102.94C139.169 101.844 139.278 100.802 139.333 99.816C139.374 94.1415 138.673 88.4859 137.247 82.9927Z" fill="#E4AB39"/>
<path d="M129.726 64.4708C126.146 61.1 121.666 58.8352 116.825 57.9497C111.682 56.2299 106.733 53.9801 102.057 51.2369L100.904 50.6615C95.881 48.1133 88.4148 44.4418 85.313 41.2361C83.1936 38.604 81.2845 35.8098 79.6036 32.8793C78.0343 30.3136 76.1124 27.9803 73.8941 25.9472L72.9608 25.2074C71.4511 24.0567 58.9068 16.1382 55.9423 14.0285C52.9777 11.9187 53.6914 9.12398 52.017 8.68559C49.2721 8.00061 46.8291 8.2198 45.2919 6.76764C43.7548 5.31547 40.4609 1.86314 38.1551 1.58915C34.175 1.12336 34.2848 3.09612 36.8376 6.46624C40.0945 10.0873 43.7816 13.2984 47.8173 16.0286L48.2565 16.3848C51.0014 18.6316 53.7463 20.9331 57.15 23.6457C58.7404 25.082 60.2264 26.6294 61.5968 28.2762C63.9575 31.0161 67.0867 34.5232 70.1885 38.3591C72.4942 41.0991 75.3215 45.1542 76.5567 46.3872C79.6036 49.6477 83.968 52.9904 87.8384 56.5798C88.9912 57.6757 90.8303 59.8951 93.5204 62.5254C97.8649 66.8805 102.878 70.5156 108.37 73.2934C112.57 75.4031 120.421 81.02 127.228 76.2251C131.263 73.3482 133.047 68.4985 129.726 64.4708Z" fill="#E5C3B7"/>
<path d="M131.976 105.515C131.976 105.759 131.904 105.997 131.768 106.2C131.632 106.403 131.439 106.561 131.214 106.654C130.988 106.747 130.74 106.772 130.5 106.724C130.26 106.677 130.04 106.559 129.868 106.387C129.695 106.214 129.577 105.995 129.53 105.755C129.482 105.516 129.506 105.268 129.6 105.043C129.693 104.818 129.852 104.625 130.055 104.49C130.258 104.354 130.497 104.282 130.741 104.282C131.069 104.282 131.383 104.412 131.614 104.643C131.846 104.874 131.976 105.188 131.976 105.515Z" fill="white"/>
<path d="M127.201 76.2251C130.369 78.4647 132.926 81.4599 134.639 84.9381C138.482 92.2811 138.619 101.378 137.165 104.83C134.749 110.31 130.412 108.365 130.412 108.365C131.545 107.91 132.554 107.194 133.356 106.275C134.158 105.356 134.729 104.259 135.024 103.077C135.681 101.205 135.86 99.1988 135.545 97.2404C135.545 97.2404 134.282 101.707 131.126 102.255C126.953 102.94 127.201 99.268 127.201 99.268C127.201 99.268 129.259 101.268 132.388 98.0624C134.969 95.3225 133.706 90.3632 133.706 90.3632C133.18 91.2518 132.379 91.9459 131.423 92.3412C130.468 92.7364 129.41 92.8115 128.408 92.5551C127.902 92.4534 127.447 92.179 127.122 91.779C126.796 91.3791 126.62 90.8785 126.624 90.3632C127.582 90.604 128.591 90.5408 129.511 90.1823C130.431 89.8238 131.216 89.1878 131.757 88.363C132.196 87.678 133.102 84.1161 127.201 76.2251Z" fill="white"/>
<path d="M128.271 88.8561C128.954 88.8561 129.507 88.3041 129.507 87.6231C129.507 86.9422 128.954 86.3901 128.271 86.3901C127.589 86.3901 127.036 86.9422 127.036 87.6231C127.036 88.3041 127.589 88.8561 128.271 88.8561Z" fill="white"/>
<path d="M130.742 96.9937C130.742 97.2376 130.669 97.476 130.534 97.6787C130.398 97.8815 130.205 98.0395 129.979 98.1328C129.754 98.2262 129.505 98.2506 129.266 98.203C129.026 98.1554 128.806 98.038 128.633 97.8656C128.461 97.6931 128.343 97.4734 128.295 97.2343C128.248 96.9951 128.272 96.7472 128.366 96.5219C128.459 96.2966 128.617 96.104 128.82 95.9685C129.024 95.833 129.262 95.7607 129.507 95.7607C129.832 95.7677 130.142 95.8999 130.372 96.1296C130.603 96.3593 130.735 96.6689 130.742 96.9937Z" fill="white"/>
<path d="M60.6907 17.1244C60.6907 17.1244 60.526 22.6043 63.9298 23.0975C67.3335 23.5907 68.8706 22.3851 66.9217 19.3438C64.9728 16.3024 62.0907 15.5627 60.6907 17.1244Z" fill="#D3A197"/>
<path d="M49.4095 17.2066C49.8012 16.0304 50.3555 14.9145 51.0564 13.8913C51.7242 12.8903 52.6817 12.1162 53.8014 11.672C53.472 10.9322 53.0877 9.9458 53.0877 9.9458C52.031 10.5689 51.0381 11.2939 50.1232 12.1104C49.2997 12.9597 47.0488 15.4531 47.0488 15.4531L49.4095 17.2066Z" fill="#D3A197"/>
<path d="M56.6014 14.3845C56.6014 14.3845 56.6014 18.467 56.3543 19.3438C56.1073 20.2206 55.8877 22.7139 55.8877 22.7139L57.0406 23.6455C57.0406 23.6455 57.3974 19.426 57.4249 17.2067C57.4523 14.9873 57.1504 14.7955 57.1504 14.7955L56.6014 14.3845Z" fill="#D3A197"/>
<path d="M65.1655 126.037C60.9657 118.146 49.8762 119.16 49.6292 119.187L46.8842 119.571C45.4315 118.689 43.918 117.911 42.3551 117.242C34.6352 113.83 26.4302 111.64 18.035 110.748C12.0236 110.228 12.1883 115.872 11.4746 119.927C10.5962 124.914 14.0274 150.066 15.6195 161.711C15.6471 161.92 15.6471 162.132 15.6195 162.341C16.6905 163.129 17.9692 163.586 19.2977 163.656C20.7982 163.664 22.2871 163.394 23.6896 162.862C23.9916 156.024 24.7527 149.213 25.9679 142.477C27.5874 136.339 22.5641 126.037 22.5641 126.037L38.869 135.106C42.6845 137.243 45.5667 138.696 47.8724 139.737C47.8724 139.737 57.6444 145.217 64.2596 142.477C65.8043 140.042 66.6984 137.252 66.857 134.375C67.0156 131.497 66.4332 128.626 65.1655 126.037Z" fill="#E5C3B7"/>
<path d="M64.4791 117.817C64.2796 117.545 64.0963 117.262 63.9301 116.968C62.7348 114.698 62.3476 112.089 62.8321 109.57C63.4133 106.775 64.4421 104.092 65.879 101.624C63.9645 101.316 62.1113 100.706 60.3892 99.816C58.1163 98.4087 56.1761 96.5263 54.7023 94.2984C53.2285 92.0705 52.2563 89.5501 51.8524 86.9109V87.1575C50.3702 90.5002 47.4331 93.7333 45.7861 97.9255C45.7861 102.172 46.3626 109.762 48.8879 112.612C51.8799 116.091 55.2287 114.365 64.4791 117.817Z" fill="#E4AB39"/>
<path d="M44.6051 104.775C44.9615 109.773 45.742 114.732 46.9383 119.598L49.6833 119.215C49.9303 119.215 61.0198 118.174 65.2196 126.065C66.4873 128.654 67.0697 131.524 66.9111 134.402C66.7526 137.28 65.8584 140.069 64.3138 142.504C65.7467 141.933 66.9986 140.987 67.9371 139.764C74.9366 130.339 67.9371 122.612 65.0274 118.639C64.8353 118.42 64.698 118.201 64.5334 117.982C55.2829 114.42 51.9341 116.146 48.8323 112.666C46.307 109.926 45.8129 102.227 45.7306 97.9802C45.2411 99.1669 44.9 100.409 44.7149 101.679C44.5655 102.704 44.5287 103.742 44.6051 104.775Z" fill="#242424"/>
</g>
<defs>
<clipPath id="clip0_21_1014">
<rect width="173.205" height="175" fill="white"/>
</clipPath>
</defs>
</svg>
