<svg width="161" height="175" viewBox="0 0 161 175" fill="none" xmlns="http://www.w3.org/2000/svg">
<g clip-path="url(#clip0_23_1077)">
<path d="M75.1859 124.574C74.2807 122.63 68.1305 122.045 65.4149 121.912C65.0954 121.912 64.8291 121.113 65.2019 120.447C66.1603 118.823 66.1603 117.332 65.6279 117.119C65.0954 116.906 64.7493 117.439 63.6843 118.663C62.611 119.93 61.4259 121.097 60.1433 122.151C58.494 123.544 56.7601 124.833 54.9516 126.012C51.9431 127.37 46.9644 128.195 42.4117 130.085C39.1369 131.443 32.6673 135.596 27.9814 138.285C26.835 138.898 25.6525 139.44 24.4404 139.909L25.6385 148.11C28.9009 146.101 32.2993 144.322 35.8089 142.785C37.6726 141.933 46.5916 136.342 48.056 135.33C49.5203 134.318 56.4426 130.458 56.4426 130.458C59.8809 128.784 63.6415 127.875 67.4649 127.796C72.2572 128.514 77.0496 128.488 75.1859 124.574Z" fill="#D3A197"/>
<path d="M17.5714 59.1853L15.8408 0H24.5735V55.804L17.5714 59.1853Z" fill="#2AA854"/>
<path d="M31.6827 50.5858C31.6827 50.5858 42.5187 46.4857 46.4325 45.261C48.6341 44.3298 50.9153 43.5991 53.2482 43.0778C54.8457 42.8116 54.6327 44.4356 52.7424 46.3259C50.852 48.2162 51.4378 49.5474 49.2014 50.852C46.9649 52.1566 43.8765 53.0352 43.4772 54.9787C43.0778 56.9223 40.6284 60.0639 37.8063 59.5581C35.621 59.4894 33.4502 59.9364 31.4697 60.8627L31.6827 50.5858Z" fill="#E5C3B7"/>
<path d="M14.8294 73.163C20.3406 71.4591 19.7016 69.5421 29.9519 62.0874V52.9553C23.9614 56.4431 14.2969 60.4101 7.61426 64.3504C7.82744 66.3626 8.6239 68.2686 9.90572 69.8342C11.1875 71.3999 12.8989 72.5568 14.8294 73.163Z" fill="#E5C3B7"/>
<path d="M1.09137 76.5442C3.40767 80.2449 10.0637 88.4185 17.2788 97.5506C25.7985 108.2 25.266 113.525 33.7857 118.85C35.4105 119.905 37.3393 120.392 39.2703 120.234L42.4385 101.997C42.4385 101.997 41.3736 101.997 39.3235 98.4292C36.137 92.5223 31.9788 87.194 27.0232 82.6677C23.6572 78.6859 19.5062 75.4412 14.8294 73.1363C12.8989 72.5302 11.1876 71.3732 9.90573 69.8075C8.62391 68.2419 7.82746 66.3359 7.61427 64.3237C5.44955 65.5154 3.46788 67.0129 1.73035 68.7699C0.74136 69.7921 0.137181 71.1253 0.020677 72.5428C-0.0958274 73.9603 0.282544 75.3743 1.09137 76.5442Z" fill="#282828"/>
<path d="M37.2736 161.635C34.8886 159.475 32.197 157.681 29.2863 156.31C27.2895 155.538 27.0499 153.647 26.9967 152.103C26.8273 151.272 26.7646 150.422 26.8103 149.574L20.8731 153.488C20.4471 155.085 14.5898 152.689 14.5898 152.689C15.9743 153.781 18.1575 157.535 20.2874 159.744C21.9647 161.528 24.1745 163.472 23.4823 165.921C23.3492 166.347 22.9498 166.773 22.6037 167.545C22.2576 168.317 22.2576 170.208 23.1894 170.208C24.1213 170.208 23.8816 170.554 23.9615 170.847C24.0414 171.139 24.2011 171.459 24.6537 171.352C24.6537 171.805 24.6537 172.284 25.3193 172.071C25.9849 171.858 26.1713 172.071 26.3843 172.843C26.5973 173.616 26.1979 174.441 26.7837 174.574C27.9592 174.498 29.1168 174.246 30.2182 173.829C31.2565 173.536 31.8156 173.269 32.8806 173.962C34.5788 174.825 36.5483 174.988 38.3651 174.414C41.347 173.163 41.3737 172.231 41.3737 172.231C42.0659 170.101 38.5515 162.567 37.2736 161.635Z" fill="#E5C3B7"/>
<path d="M49.2281 159.052C48.6103 158.095 47.6376 157.423 46.5242 157.184C45.4108 156.944 44.2477 157.156 43.2909 157.774C42.3342 158.392 41.662 159.365 41.4223 160.478C41.1827 161.592 41.3951 162.755 42.013 163.711C42.6308 164.668 43.6035 165.34 44.7169 165.58C45.8303 165.82 46.9934 165.607 47.9502 164.989C48.9069 164.372 49.5791 163.399 49.8188 162.285C50.0584 161.172 49.846 160.009 49.2281 159.052Z" fill="#353535"/>
<path d="M39.6429 174.015C38.0377 172.642 36.6071 171.077 35.383 169.356C34.66 168.051 34.3886 166.544 34.6109 165.069C36.2883 164.803 36.9272 163.765 36.874 163.126C36.8158 162.646 36.6184 162.193 36.3061 161.824C35.9939 161.455 35.5804 161.186 35.1168 161.049C34.2813 160.889 33.423 160.889 32.5875 161.049C32.5875 161.049 30.4043 157.721 29.2861 156.443C30.5218 156.5 31.7461 156.185 32.8005 155.538C35.1079 154.649 37.6637 154.654 39.968 155.55C42.2724 156.446 44.1596 158.169 45.2606 160.383C46.7781 163.099 47.7632 169.435 39.6429 174.015Z" fill="#444444"/>
<path d="M21.8847 158.2C19.2769 157.437 16.8123 156.249 14.5897 154.686C12.1936 152.636 8.43958 145.74 10.5961 142.758C12.7527 139.776 15.0423 146.805 16.3735 149.547C18.064 152.522 19.9034 155.41 21.8847 158.2Z" fill="#E5C3B7"/>
<path d="M155.325 102.21C149.762 101.615 144.147 101.704 138.605 102.476H137.94C133.76 102.769 129.713 102.875 124.628 103.195C122.143 103.186 119.662 103.017 117.199 102.689C113.073 102.21 107.748 101.518 101.997 100.746C97.8969 100.186 92.2793 98.9351 90.2825 98.8286C88.9779 98.8286 87.6201 98.8286 86.209 98.8286C87.2719 102.534 87.4543 106.436 86.7415 110.224C90.6772 110.792 94.5596 111.682 98.3496 112.886C101.681 113.853 105.131 114.345 108.6 114.35C109.061 114.378 109.523 114.378 109.984 114.35C112.167 114.164 129.074 111.156 133.227 110.65C137.38 110.144 138.978 113.099 140.762 112.167C143.61 110.676 145.554 108.52 148.003 108.6C150.453 108.68 155.751 108.972 157.934 107.428C161.795 104.686 160.144 103.088 155.325 102.21Z" fill="#E5C3B7"/>
<path d="M86.288 98.802C81.9749 98.802 77.2891 99.0682 72.7098 99.015C62.4982 97.6409 52.1189 98.21 42.1187 100.692C36.7939 102.157 25.8248 103.355 23.7481 112.859C21.6714 122.364 31.1762 128.834 45.6331 121.086C51.7633 118.309 58.1591 116.159 64.7226 114.67C70.9526 112.993 81.2561 109.851 86.8205 110.197C87.5334 106.409 87.351 102.507 86.288 98.802Z" fill="#232121"/>
<path d="M32.2419 142.758C30.9905 140.096 28.7541 136.582 27.8489 134.106C27.6061 133.558 27.4619 132.972 27.4229 132.375C27.4229 130.245 27.1034 125.107 32.7477 124.627C33.3852 121.351 33.2668 117.973 32.4016 114.75C31.028 111.76 29.2351 108.98 27.0768 106.496L25.9053 107.055C22.4039 108.736 18.9996 110.611 15.7083 112.673C14.8966 113.281 14.1554 113.977 13.4985 114.75C10.7523 118.296 9.04693 122.537 8.57306 126.997C7.99086 130.581 7.67052 134.202 7.6146 137.833C7.49731 140.5 7.61312 143.173 7.96071 145.82C8.54644 149.76 12.8595 155.964 17.572 156.47C14.9096 154.979 12.2472 152.21 13.9511 152.583C15.6551 152.955 18.8766 156.443 21.0864 157.082C23.2962 157.721 25.4261 156.896 29.26 155.698C29.4463 150.08 34.2919 147.977 32.8276 144.09C32.6678 143.77 32.4815 143.238 32.2419 142.758Z" fill="#E4AB39"/>
<path d="M96.1127 133.546C95.4471 131.39 89.1105 129.819 86.2884 129.18C85.9423 129.18 85.7825 128.248 86.2884 127.609C87.5397 126.065 87.7793 124.467 87.2468 124.201C86.7144 123.935 86.2884 124.388 84.9838 125.506C83.6463 126.664 82.2122 127.706 80.6973 128.621C78.72 129.836 76.6656 130.921 74.5472 131.869C71.1925 132.827 65.8145 132.934 60.7559 134.212C57.1084 135.144 49.6803 138.472 44.3289 140.575C42.1989 141.427 37.0339 142.545 32.6143 143.584C31.6059 140.825 30.2553 138.205 28.594 135.783C24.6628 137.081 21.2 139.507 18.6366 142.758C16.5866 146.033 18.184 149.388 18.8496 151.384C19.5152 153.381 21.8315 157.082 25.1063 157.082C32.8273 157.082 34.4247 154.686 37.8326 152.023C40.6814 149.787 48.3491 147.551 51.9433 146.486C54.0466 145.847 64.2703 141.374 65.9742 140.522C67.6782 139.67 75.5323 136.688 75.5323 136.688C75.5323 136.688 83.0935 134.531 87.4865 135.783C92.4385 137.247 97.4439 137.966 96.1127 133.546Z" fill="#E5C3B7"/>
<path d="M28.541 126.837C29.8032 125.814 31.2622 125.062 32.8274 124.627H34.2651L36.3951 0H26.624L28.541 126.837Z" fill="#50C97C"/>
<path d="M22.5235 108.759C22.5235 108.759 15.9739 80.5112 18.7695 71.2993C22.9495 67.8914 24.6268 66.2939 24.6268 66.2939C24.6268 66.2939 25.8515 79.7924 25.6119 90.2556C25.6119 93.7167 25.8515 106.949 25.8515 106.949L22.5235 108.759Z" fill="#2AA854"/>
<path d="M24.2806 141.374C23.9877 142.226 24.2806 145.926 25.8514 146.699C27.4566 146.983 29.1103 146.769 30.5905 146.086C28.382 144.661 26.2738 143.087 24.2806 141.374Z" fill="#D3A197"/>
</g>
<defs>
<clipPath id="clip0_23_1077">
<rect width="160.091" height="175" fill="white"/>
</clipPath>
</defs>
</svg>
