<svg width="161" height="185" viewBox="0 0 161 185" fill="none" xmlns="http://www.w3.org/2000/svg">
<path d="M67.7472 95.1086H67.2568L68.6415 94.9677C68.3357 94.9271 68.0244 94.9762 67.7472 95.1086Z" fill="#E5C3B7"/>
<path d="M59.0359 111.922C57.2734 105.394 55.0271 99.0002 52.3151 92.7922C48.0173 83.1851 47.5269 78.1273 44.2675 73.9171C41.008 69.7069 32.7296 52.1881 30.4509 47.6954C28.1721 43.2026 25.0281 42.2984 24.0762 40.0945C23.4987 39.249 23.2083 38.2465 23.2465 37.2299C23.2847 36.2133 23.6494 35.2345 24.2887 34.4328C24.9281 33.6312 25.8094 33.0476 26.8071 32.7654C27.8048 32.4831 28.8679 32.5166 29.8451 32.8609C33.2776 34.9518 34.0276 41.7898 35.989 46C39.3166 51.9204 43.1779 57.5375 47.5269 62.7842C50.9786 67.5477 53.7358 72.7593 55.7188 78.2685C56.2091 79.7944 68.1508 96.9741 69.045 102.371C69.9392 107.768 59.0359 111.922 59.0359 111.922Z" fill="#E5C3B7"/>
<path d="M85.6015 79.9355C85.6015 79.9355 93.2453 76.7991 94.9183 85.954C95.6683 89.9664 91.7454 94.12 93.1588 99.3474C93.2055 99.9831 93.4203 100.596 93.782 101.126C94.1437 101.656 94.64 102.084 95.222 102.369C95.804 102.654 96.4516 102.786 97.1014 102.752C97.7511 102.717 98.3805 102.518 98.9277 102.173C98.9277 102.173 97.7451 104.603 95.7837 104.999C94.7723 105.208 93.7174 105.033 92.8334 104.508C91.9493 103.983 91.3025 103.148 91.0243 102.173C90.8944 103.155 91.1079 104.151 91.63 104.999C92.5012 105.985 93.7349 106.594 95.0625 106.694C94.2816 107.039 93.4209 107.174 92.5691 107.084C91.7173 106.995 90.9052 106.685 90.2166 106.185C88.9619 105.044 88.0704 103.572 87.6495 101.947C87.3213 100.336 87.2822 98.6822 87.5341 97.0586C86.808 97.7404 85.8779 98.1762 84.8804 98.3019C84.1813 98.3668 83.478 98.2334 82.8541 97.9178C82.2302 97.6022 81.712 97.1176 81.3613 96.5218C82.4592 96.6155 83.5616 96.3992 84.5379 95.8984C85.5143 95.3977 86.3238 94.6334 86.8707 93.6962C87.5392 92.9099 88.0326 91.9955 88.3194 91.0115C88.6062 90.0276 88.68 88.9958 88.5361 87.9823C88.3922 86.9688 88.0337 85.9959 87.4837 85.126C86.9336 84.2561 86.2041 83.5083 85.3419 82.9306C83.2074 81.2353 85.6015 79.9355 85.6015 79.9355Z" fill="#353535"/>
<path d="M65.8721 76.2905C66.9971 76.1209 67.6605 76.1209 68.4104 75.019C69.0297 74.242 69.7995 73.5924 70.6756 73.1075C71.5517 72.6226 72.5169 72.312 73.5159 72.1934C76.9196 72.1934 77.3522 72.9563 77.3522 72.9563C79.0541 74.9342 78.9098 83.524 78.1887 84.9086C76.8598 87.977 75.071 90.8341 72.8813 93.3854C71.4103 94.8547 71.8141 95.4481 72.3621 96.9739L63.7088 96.3805C64.4299 95.7871 65.6125 95.2503 65.8144 94.2048C66.0163 93.1593 66.1317 92.7637 66.1894 92.0291C66.1998 91.4232 66.1516 90.8177 66.0452 90.2207C66.0452 89.6273 66.2183 89.0905 65.8721 88.8079C65.526 88.5253 62.9877 86.7452 62.9877 86.7452C62.9877 86.7452 62.1223 86.1518 61.4301 85.5867C60.7378 85.0216 59.9878 83.298 60.7955 82.7611C61.6031 82.2242 61.3147 82.1395 61.257 81.8287C61.1993 81.5178 61.257 81.1505 61.7185 81.0657C61.7185 80.5854 61.3724 80.1333 62.0358 80.105C62.6992 80.0768 62.9011 79.7942 62.7281 78.9183C62.555 78.0424 61.8627 77.4772 62.3531 77.1099C63.4764 76.662 64.6632 76.3857 65.8721 76.2905Z" fill="#E5C3B7"/>
<path d="M62.8721 97.3694C62.8721 97.3694 67.4873 96.7477 67.7469 95.1089C67.9105 93.8703 67.8223 92.6123 67.4873 91.4073C67.4595 90.7756 67.2605 90.1626 66.9107 89.6312C66.5609 89.0998 66.0729 88.6693 65.497 88.3839C65.0355 88.1578 62.8721 86.9146 62.8721 86.9146C63.796 87.7822 64.5661 88.7944 65.1508 89.9097C66.6796 92.6788 62.8721 97.3694 62.8721 97.3694Z" fill="#FFA08D"/>
<path d="M74.9872 72.3342C74.033 74.3062 73.326 76.384 72.8815 78.5224C72.7483 80.1166 73.1647 81.7085 74.0642 83.0434C75.7949 82.5913 76.9486 83.2977 77.0929 83.9194C77.2677 84.4125 77.2869 84.9458 77.148 85.4498C77.0091 85.9537 76.7185 86.4051 76.3141 86.745C75.5993 87.2911 74.7876 87.703 73.9199 87.96C73.6263 89.8627 73.2316 91.749 72.7373 93.6113C73.9157 93.0389 75.2382 92.8132 76.5448 92.9614C78.954 92.8881 81.2523 91.9534 83.006 90.3336C84.0981 89.3839 84.9716 88.2176 85.5683 86.912C86.1651 85.6064 86.4716 84.1914 86.4674 82.7609C86.6116 79.5679 84.7944 73.1537 74.9872 72.3342Z" fill="#444444"/>
<path d="M65.699 163.828L54.7669 138.397C54.7669 138.397 28.5183 127.801 21.4225 127.095C14.3267 126.388 13.4037 133.311 12.971 138.228C12.8282 141.634 13.247 145.04 14.2113 148.315C14.9325 151.141 15.7978 153.966 16.2882 156.538C16.9516 159.589 19.4611 172.192 17.24 174.367C14.3041 176.967 10.8169 178.897 7.02904 180.019C-0.326339 180.753 -0.470562 184.511 4.14458 184.285C7.37517 184.116 18.2207 184.285 23.9031 184.285C24.3815 184.293 24.8565 184.207 25.3007 184.033C25.7448 183.859 26.1491 183.6 26.49 183.271C26.831 182.942 27.1017 182.55 27.2865 182.118C27.4713 181.686 27.5665 181.222 27.5664 180.753C27.5664 179.086 26.0376 176.939 25.9223 174.367C25.9223 171.09 28.6625 157.809 27.7972 151.762C27.5928 150.365 27.2745 148.985 26.8453 147.637C26.4184 146.197 25.8383 144.805 25.1146 143.483L47.5846 155.86C53.2715 159.224 59.354 161.899 65.699 163.828Z" fill="#E5C3B7"/>
<path d="M60.3047 144.077C61.7181 142.268 65.1507 132.972 62.8719 127.123C60.5932 121.274 56.728 113.165 59.6413 107.118C62.2582 102.621 65.7118 98.6432 69.8235 95.3916C69.4446 95.2324 69.0475 95.1186 68.6409 95.0525L67.2563 95.1938C63.7585 96.1376 60.6135 98.0509 58.1991 100.704C52.9205 105.903 48.7957 108.079 50.2091 114.012C50.9302 117.064 52.3725 120.737 53.4109 125.06C53.8519 126.921 54.1603 128.809 54.3339 130.712C54.4781 132.124 54.5935 135.091 54.7666 138.426C54.4846 141.244 54.4846 144.083 54.7666 146.902C56.781 146.318 58.6615 145.359 60.3047 144.077Z" fill="#232121"/>
<path d="M62.8722 161.878C63.5933 162.443 64.4009 163.008 65.2663 163.573C63.2184 160.248 62.2152 156.406 62.3818 152.525C68.862 150.596 75.1868 148.197 81.3038 145.348C79.8234 142.815 78.5317 140.18 77.4387 137.465C76.5254 136.758 75.5614 136.115 74.5542 135.543C73.8028 134.377 73.119 133.169 72.5062 131.927C71.7953 130.278 71.5176 128.481 71.6986 126.699C72.6714 123.103 74.116 119.646 75.9964 116.414C76.5166 115.149 76.8469 113.816 76.9771 112.458C77.4387 107.655 79.4001 102.54 76.631 99.9973C75.2918 98.7464 73.8441 97.6119 72.3043 96.6066C71.565 96.1158 70.7716 95.7083 69.9391 95.3916C65.8274 98.6433 62.3738 102.621 59.757 107.118C56.8725 113.165 60.7377 121.246 62.9875 127.123C65.2374 133 61.8338 142.268 60.4204 144.077C58.8029 145.349 56.9527 146.308 54.9688 146.902C55.1745 148.993 55.5998 151.057 56.2379 153.062C57.5019 156.583 59.8124 159.654 62.8722 161.878Z" fill="#E4AB39"/>
<path d="M159.993 179.001C159.127 175.3 156.243 168.151 154.656 166.992C153.07 165.834 150.474 165.608 146.638 167.303C140.869 169.79 125.956 168.575 123.793 168.434C117.821 167.845 111.79 168.382 106.024 170.016C103.14 168.264 89.7848 159.166 86.4677 150.886C84.6474 145.82 81.5987 141.263 77.5836 137.606C74.348 137.427 71.1603 138.434 68.6417 140.432C62.2671 145.094 60.3345 155.21 65.2669 163.602C74.6126 169.931 96.1307 182.109 100.515 182.957C106.433 183.985 112.521 183.508 118.197 181.573C119.351 181.318 131.494 178.267 139.282 176.967C142.888 176.373 152.435 173.35 152.955 179.566C153.185 182.166 151.224 181.601 150.07 182.392C148.916 183.183 149.176 184.172 152.955 184.285C158.233 184.285 160.973 182.957 159.993 179.001Z" fill="#E5C3B7"/>
<path d="M44.7575 19.8628C42.8537 22.6884 39.8827 24.1012 38.1232 22.9709C36.3636 21.8407 36.479 18.6478 38.4982 15.7939C40.5173 12.9401 43.3729 11.5555 45.1325 12.6858C46.892 13.816 46.6324 17.0089 44.7575 19.8628Z" fill="#1EB5D8"/>
<path d="M71.3521 96.1828C67.955 98.2643 64.9657 100.925 62.5256 104.038C60.4415 107.239 59.1295 110.862 58.6893 114.634C57.6688 111.247 58.0523 107.602 59.7565 104.49C61.8396 100.377 65.3756 97.144 69.7079 95.3916L71.3521 96.1828Z" fill="white"/>
<path d="M55.0843 148.767L54.8535 146.563C54.8535 146.563 57.738 146.931 60.8532 141.619C62.4532 138.969 63.3921 135.988 63.5935 132.916C64.0337 135.227 63.9682 137.603 63.4013 139.888C62.8345 142.172 61.7792 144.313 60.3052 146.168C57.4207 149.7 55.0843 148.767 55.0843 148.767Z" fill="white"/>
<path d="M57.8823 142.749C58.3124 142.749 58.6611 142.407 58.6611 141.986C58.6611 141.565 58.3124 141.223 57.8823 141.223C57.4522 141.223 57.1035 141.565 57.1035 141.986C57.1035 142.407 57.4522 142.749 57.8823 142.749Z" fill="white"/>
<path d="M61.4009 136.731C61.831 136.731 62.1797 136.389 62.1797 135.968C62.1797 135.546 61.831 135.204 61.4009 135.204C60.9708 135.204 60.6221 135.546 60.6221 135.968C60.6221 136.389 60.9708 136.731 61.4009 136.731Z" fill="white"/>
<path d="M61.4014 114.013C61.4013 114.165 61.3548 114.313 61.2678 114.439C61.1809 114.565 61.0575 114.663 60.9135 114.72C60.7696 114.777 60.6115 114.79 60.4597 114.758C60.3079 114.726 60.1692 114.651 60.0616 114.541C59.9539 114.432 59.8821 114.293 59.8554 114.143C59.8287 113.994 59.8483 113.839 59.9116 113.7C59.975 113.562 60.0793 113.445 60.2111 113.364C60.343 113.284 60.4963 113.244 60.6514 113.25C60.8529 113.257 61.0437 113.34 61.1835 113.483C61.3234 113.625 61.4015 113.815 61.4014 114.013Z" fill="white"/>
<path d="M62.9302 108.446C63.3603 108.446 63.709 108.105 63.709 107.683C63.709 107.262 63.3603 106.92 62.9302 106.92C62.5 106.92 62.1514 107.262 62.1514 107.683C62.1514 108.105 62.5 108.446 62.9302 108.446Z" fill="white"/>
<path d="M59.8726 139.81C60.3027 139.81 60.6514 139.469 60.6514 139.047C60.6514 138.626 60.3027 138.284 59.8726 138.284C59.4424 138.284 59.0938 138.626 59.0938 139.047C59.0938 139.469 59.4424 139.81 59.8726 139.81Z" fill="white"/>
<path d="M62.1802 133.651C62.6103 133.651 62.959 133.309 62.959 132.888C62.959 132.466 62.6103 132.125 62.1802 132.125C61.75 132.125 61.4014 132.466 61.4014 132.888C61.4014 133.309 61.75 133.651 62.1802 133.651Z" fill="white"/>
<path d="M62.4973 110.791C62.4898 110.989 62.4045 111.176 62.2593 111.313C62.114 111.45 61.9201 111.527 61.7185 111.526C61.5412 111.492 61.3814 111.399 61.2665 111.263C61.1517 111.126 61.0889 110.954 61.0889 110.777C61.0889 110.6 61.1517 110.429 61.2665 110.292C61.3814 110.155 61.5412 110.062 61.7185 110.028C61.9251 110.028 62.1231 110.108 62.2692 110.252C62.4153 110.395 62.4973 110.589 62.4973 110.791Z" fill="white"/>
<path d="M64.8052 105.762C65.2353 105.762 65.584 105.42 65.584 104.999C65.584 104.577 65.2353 104.236 64.8052 104.236C64.3751 104.236 64.0264 104.577 64.0264 104.999C64.0264 105.42 64.3751 105.762 64.8052 105.762Z" fill="white"/>
<path d="M80.9002 171.513C80.9002 171.513 82.4289 168.066 83.4673 165.015C83.0673 163.67 82.759 162.302 82.5443 160.917C82.227 158.092 84.3904 142.918 84.3615 129.525C84.3615 126.247 82.227 104.97 78.5926 99.9974C74.9582 95.0243 70.7469 96.4936 69.9392 97.5108C68.6124 99.517 65.1222 101.919 67.0547 108.813C69.4777 117.686 74.5832 130.175 75.0447 132.746C76.0831 138.623 72.5352 139.245 74.1505 147.355C75.4027 152.641 76.3656 157.989 77.035 163.376C77.6696 164.732 78.5349 166.597 78.9387 167.755C79.5151 169.045 80.1701 170.3 80.9002 171.513Z" fill="#232121"/>
<path d="M78.708 181.544C80.9867 183.946 83.727 180.244 84.2173 174.763C84.5474 171.495 84.2936 168.196 83.4674 165.014C82.4289 168.066 80.9002 171.513 80.9002 171.513C80.2172 170.278 79.6104 169.005 79.083 167.699C78.6791 166.54 77.8138 164.675 77.1792 163.319C77.1792 163.46 77.1792 163.63 77.1792 163.743C77.1504 166.992 72.7371 175.328 78.708 181.544Z" fill="#D3A197"/>
<path d="M26.429 42.7793C24.1546 41.8603 21.6613 41.5812 19.2219 41.9727L18.965 42.5838L31.8737 47.7766L32.1297 47.1677C30.6784 45.2102 28.7062 43.692 26.429 42.7793Z" fill="#FED100"/>
<path d="M33.601 48.3992L17.3105 41.863L13.0523 51.9629L29.3427 58.499L33.601 48.3992Z" fill="#97512C"/>
<path d="M30.5277 58.9342L11.9336 51.4407L11.2874 52.9801L29.8815 60.4736L30.5277 58.9342Z" fill="#7C3E25"/>
<path d="M31.7746 33.5089C30.8171 33.4819 29.9053 33.1162 29.2053 32.4784L29.2074 32.4734C29.5221 31.7273 29.4891 30.8048 28.9967 29.9693L28.9862 29.9568C27.1608 27.2461 26.1269 24.0859 25.9961 20.8178C25.7481 14.9511 26.8145 9.08736 29.1192 3.64406L52.6368 13.0771C50.3476 18.5269 46.8748 23.4257 42.4659 27.4248C40.0149 29.6574 37 31.1936 33.7471 31.8673L33.7314 31.8692C32.7786 32.125 32.0896 32.758 31.775 33.5041L31.7746 33.5089Z" fill="#FED100"/>
<path d="M31.6254 33.4315C31.4862 33.761 31.4214 34.1157 31.4354 34.4708C31.4495 34.8259 31.542 35.1728 31.7066 35.4871C31.7867 35.6559 31.8129 35.8452 31.7816 36.0302C31.7504 36.2152 31.6632 36.3872 31.5316 36.5236C31.4 36.6599 31.23 36.7542 31.0442 36.7939C30.8584 36.8337 30.6654 36.8172 30.4906 36.7465L27.8505 35.6874C27.6752 35.6178 27.526 35.4971 27.4227 35.3412C27.3193 35.1854 27.2666 35.0017 27.2716 34.8144C27.2766 34.6272 27.3389 34.4451 27.4504 34.2923C27.562 34.1395 27.7174 34.0232 27.8963 33.9586C28.24 33.8481 28.5559 33.6652 28.8221 33.4225C29.0882 33.1798 29.298 32.8832 29.4369 32.5535L31.6254 33.4315Z" fill="#FED100"/>
<path d="M28.2891 44.4104C26.6862 44.2532 25.1681 43.644 23.9157 42.6554L23.9299 42.6373L24.5282 41.2182C25.6389 40.1313 26.5195 38.8374 27.1175 37.4136C27.3682 36.8193 27.5686 36.2061 27.7166 35.5802L30.6893 36.7732C29.5094 38.6352 28.8852 40.7836 28.8895 42.9684L28.2907 44.3889L28.2891 44.4104Z" fill="#FFDB31"/>
<path d="M23.1114 27.2201C22.5143 26.9798 22.0263 26.5359 21.7353 25.9683C21.6794 25.8592 21.646 25.7399 21.6369 25.6175C21.6279 25.495 21.6434 25.3717 21.6825 25.2546C21.7616 25.0181 21.9322 24.8212 22.1569 24.7071C22.3816 24.5931 22.6419 24.5714 22.8806 24.6467C22.9988 24.684 23.1081 24.7439 23.2023 24.8232C23.2965 24.9024 23.3738 24.9994 23.4297 25.1086C23.5167 25.2803 23.6644 25.4143 23.8452 25.4855C23.9594 25.5314 24.0829 25.5509 24.2064 25.5428C24.33 25.5346 24.4504 25.499 24.5587 25.4385C24.6669 25.3781 24.7602 25.2944 24.8314 25.1937C24.9027 25.093 24.9501 24.9779 24.9702 24.8572C25.0266 24.3936 24.961 23.925 24.7798 23.4966C24.7343 23.4176 24.6968 23.3343 24.6677 23.248L20.0148 13.0501C18.4739 9.67205 18.1719 5.22856 20.9753 2.92032C21.5708 2.43573 22.2824 2.11156 23.0396 1.97988C23.7968 1.84819 24.5733 1.91356 25.2925 2.16951C25.313 2.17775 25.335 2.18656 25.3562 2.19508L25.427 2.22349C25.4473 2.23163 25.4678 2.23987 25.4886 2.2482C26.233 2.57643 26.8639 3.10967 27.3064 3.78465C27.749 4.45963 27.9846 5.24803 27.9854 6.05633C27.9862 6.86464 27.7521 7.65893 27.3109 8.34498C26.8696 9.03103 26.2398 9.58006 25.4961 9.92693C25.2677 10.0334 25.0069 10.0463 24.771 9.96302C24.5352 9.87971 24.3436 9.70693 24.2385 9.48269C24.1334 9.25845 24.1233 9.00112 24.2104 8.76731C24.2976 8.5335 24.4749 8.34236 24.7033 8.23594C25.1208 8.04116 25.4737 7.73204 25.7197 7.34582C25.9656 6.95959 26.094 6.51272 26.0895 6.05903C26.0849 5.60533 25.9476 5.16414 25.694 4.78859C25.4404 4.41304 25.0814 4.11914 24.6601 3.94228C24.25 3.78874 23.8047 3.74582 23.3696 3.81791C22.9345 3.89 22.5252 4.07452 22.1834 4.35263C20.1582 6.01485 20.5415 9.62142 21.7446 12.2653L26.4104 22.4955C26.4241 22.5239 26.4345 22.5503 26.4429 22.5734C26.4514 22.5965 26.469 22.6216 26.4807 22.6468C26.8261 23.4076 26.9529 24.2496 26.8473 25.0816C26.8468 25.0892 26.8459 25.0967 26.8444 25.1042C26.7823 25.5077 26.628 25.8931 26.3933 26.231C26.1586 26.5688 25.8497 26.8504 25.4899 27.0543C25.1301 27.2582 24.7289 27.379 24.3169 27.4076C23.9048 27.4362 23.4927 27.3718 23.1117 27.2194L23.1114 27.2201ZM24.6783 23.276L24.6825 23.2777L24.6783 23.276Z" fill="#FED100"/>
<path d="M38.4116 30.5219C38.4978 30.3176 38.6088 30.1242 38.7422 29.9459C38.7452 29.9389 38.7517 29.9333 38.7564 29.9278C39.2815 29.2639 39.9792 28.7527 40.7736 28.4496C40.7994 28.4394 40.8261 28.4312 40.8527 28.423C40.8793 28.4148 40.9018 28.4008 40.932 28.39L51.625 24.3223C54.3867 23.2693 57.2601 20.9695 57.024 18.3999C56.9817 17.9671 56.8235 17.5545 56.5656 17.2043C56.3078 16.8541 55.9595 16.579 55.5564 16.4069C55.1296 16.2435 54.6625 16.2059 54.2114 16.2988C53.7604 16.3916 53.3446 16.6108 53.0141 16.9301C52.6837 17.2494 52.4526 17.6551 52.3489 18.0983C52.2451 18.5416 52.273 19.0035 52.4292 19.4285C52.5147 19.6609 52.5028 19.9184 52.3962 20.1444C52.2895 20.3704 52.0967 20.5463 51.8603 20.6335C51.7432 20.6767 51.619 20.6967 51.4946 20.6926C51.3702 20.6884 51.2482 20.6601 51.1354 20.6093C50.9078 20.5066 50.7318 20.3184 50.6462 20.086C50.3679 19.3289 50.3163 18.5062 50.4977 17.7157C50.6791 16.9252 51.0859 16.2 51.6697 15.6262C52.2534 15.0523 52.9898 14.654 53.7913 14.4783C54.5929 14.3027 55.4259 14.3572 56.1916 14.6353C56.2114 14.6433 56.232 14.6515 56.2532 14.66L56.324 14.6884C56.3457 14.6971 56.367 14.7057 56.3877 14.714C57.0828 15.0259 57.6813 15.5125 58.124 16.1256C58.5667 16.7387 58.8383 17.4571 58.912 18.2099C59.238 21.7737 55.8201 24.7247 52.2882 26.0673L41.6306 30.122C41.5476 30.1634 41.4609 30.1968 41.3716 30.2217C40.9335 30.4013 40.5486 30.6893 40.2543 31.0576C40.1819 31.1576 40.1331 31.2721 40.1115 31.3927C40.0899 31.5133 40.0962 31.6369 40.1297 31.7541C40.1633 31.8714 40.2233 31.9794 40.3053 32.07C40.3873 32.1606 40.4892 32.2315 40.6034 32.2774C40.7833 32.3509 40.9848 32.3571 41.1706 32.2948C41.4071 32.2247 41.661 32.248 41.8783 32.3596C42.0957 32.4713 42.2595 32.6625 42.3351 32.8929C42.4107 33.1233 42.3922 33.3748 42.2834 33.5941C42.1747 33.8134 41.9843 33.9833 41.7525 34.0679C41.2583 34.2313 40.7287 34.2519 40.2265 34.1273C39.7243 34.0028 39.2705 33.7382 38.9189 33.3649C38.5673 32.9917 38.3327 32.5255 38.2429 32.0217C38.1531 31.5178 38.2119 30.9974 38.4123 30.5222L38.4116 30.5219ZM41.5938 30.1384L41.5974 30.1398L41.5938 30.1384Z" fill="#FED100"/>
<path d="M33.5751 6.70387L29.6104 5.11134C27.9685 8.99691 27.1017 13.1516 27.0579 17.3451C27.9036 13.1649 30.2115 9.39657 33.5751 6.70387Z" fill="#FFDF5A"/>
<path d="M13.0522 51.9626L29.3433 58.499L33.6007 48.4014C33.6007 48.4014 23.8985 56.3144 13.0522 51.9626Z" fill="#8D492B"/>
<path d="M30.4191 49.844L18.5312 45.0725L16.0967 50.8489L27.9846 55.6204L30.4191 49.844Z" fill="#FED100"/>
<path d="M21.0951 4.33984C21.729 3.82417 22.4865 3.47922 23.2925 3.33913C24.0986 3.19903 24.9252 3.26865 25.6907 3.54109C25.7127 3.54991 25.7354 3.55902 25.7617 3.56955L25.8326 3.598C25.8546 3.60683 25.8766 3.61565 25.8986 3.62447C26.3402 3.81863 26.7465 4.08185 27.102 4.40407C26.7202 3.57989 26.0483 2.92281 25.2097 2.55354C25.192 2.54643 25.1728 2.53875 25.1544 2.53135L25.0926 2.50659C25.0732 2.49881 25.0541 2.49113 25.0352 2.48354C24.3895 2.25365 23.6923 2.19479 23.0125 2.31277C22.3326 2.43075 21.6936 2.72149 21.1588 3.15622C20.0045 4.10722 19.4374 5.46156 19.2944 6.94155C19.6426 5.93015 20.2657 5.02989 21.0951 4.33984Z" fill="#FFDF5A"/>
<path d="M26.8748 25.5719C27.3807 27.1274 28.1009 28.6048 29.0154 29.9627L29.0259 29.9751C29.5178 30.8099 29.5507 31.7316 29.2364 32.477L29.2343 32.482C29.9335 33.1192 30.8443 33.4846 31.8008 33.5116L31.8029 33.5067C32.1172 32.7612 32.8054 32.1288 33.7571 31.8732L33.7728 31.8713C37.0222 31.1982 40.0338 29.6634 42.4821 27.4328C46.8844 23.4373 50.3517 18.5435 52.6373 13.0996C38.8482 31.4095 26.9315 25.5946 26.8748 25.5719Z" fill="#FCC200"/>
<path d="M41.2146 22.5662C42.9512 19.8005 42.0986 16.1983 39.3103 14.5204C36.5219 12.8426 32.8537 13.7245 31.1171 16.4903C29.3805 19.256 30.2331 22.8582 33.0214 24.536C35.8098 26.2139 39.478 25.332 41.2146 22.5662Z" fill="#FFF3C0"/>
<path d="M33.9389 23.3812L36.6801 16.8726L35.4842 16.3922L36.0928 14.9473L38.9127 16.0799L35.5629 24.0334L33.9389 23.3812Z" fill="#D69A13"/>
<path d="M24.1996 38.5077C24.1996 38.5077 25.2092 42.1527 30.2858 39.6944C35.3624 37.2361 34.3817 32.8846 30.6896 32.0087C28.2667 31.4718 22.9016 33.7041 24.1996 38.5077Z" fill="#E5C3B7"/>
</svg>
