<svg width="100" height="161" viewBox="0 0 100 161" fill="none" xmlns="http://www.w3.org/2000/svg">
<path d="M10.5039 98.0112C11.7319 99.9519 12.3894 102.19 12.4035 104.476C12.2877 106.255 12.2877 108.04 12.4035 109.819H20.8157C20.8157 109.819 24.4249 101.057 20.4087 98.6256C17.2904 97.2517 13.7727 97.0335 10.5039 98.0112Z" fill="#D3A197"/>
<path d="M45.0486 104.503C45.6728 103.568 45.917 102.98 47.2467 102.74C48.2056 102.512 49.1083 102.096 49.9008 101.518C50.6933 100.94 51.3596 100.211 51.8599 99.3737C53.3252 96.3552 52.7282 95.6072 52.7282 95.6072C51.5885 93.31 43.6104 89.9174 42.0365 89.9976C38.6799 89.9427 35.3333 90.3747 32.1046 91.2798C31.2541 91.5557 30.3416 91.5892 29.4725 91.3765C28.6035 91.1638 27.8132 90.7136 27.1929 90.0777L25.3477 96.5689C26.3788 96.7292 27.3829 97.0497 28.4412 97.3169C29.1654 97.4663 29.881 97.6536 30.585 97.8778C31.1495 98.1029 31.6865 98.3896 32.186 98.7326C32.8102 98.8662 33.2986 99.0265 33.4343 99.4539C33.57 99.8813 34.167 102.873 34.167 102.873C34.167 103.354 34.3569 103.915 34.574 104.743C34.7911 105.571 36.0936 106.96 37.0163 106.506C37.9389 106.052 37.7761 106.292 38.0475 106.506C38.3188 106.72 38.6716 106.827 38.943 106.506C39.3229 106.8 39.6485 107.201 39.9741 106.506C40.2998 105.812 40.5983 105.865 41.3581 106.372C42.1179 106.88 42.3079 107.735 42.8777 107.441C43.7459 106.573 44.4776 105.583 45.0486 104.503Z" fill="#E5C3B7"/>
<path d="M25.5645 98.2785C25.5645 98.2785 26.8399 94.699 28.4409 95.1531C29.7039 95.5066 30.8778 96.1163 31.8872 96.9429C32.4567 97.2316 32.9393 97.6623 33.2869 98.1919C33.6345 98.7216 33.8349 99.3317 33.8682 99.9614C33.8682 100.469 34.1667 102.873 34.1667 102.873C33.7296 101.706 33.1067 100.615 32.3214 99.6408C30.259 96.9696 25.5645 98.2785 25.5645 98.2785Z" fill="#D3A197"/>
<path d="M47.1653 78.4302C46.3072 78.199 45.3988 78.2232 44.5546 78.4996C43.7104 78.776 42.9683 79.2923 42.4218 79.9833C41.8753 80.6744 41.5489 81.5093 41.4838 82.3827C41.4186 83.2562 41.6177 84.129 42.0558 84.8913C42.4939 85.6535 43.1515 86.2709 43.9457 86.6657C44.7398 87.0605 45.6349 87.215 46.5181 87.1097C47.4012 87.0043 48.233 86.6439 48.9083 86.0739C49.5837 85.5038 50.0725 84.7496 50.3131 83.9065C50.4737 83.3434 50.5196 82.7547 50.4482 82.1741C50.3767 81.5935 50.1893 81.0325 49.8968 80.5235C49.6042 80.0145 49.2122 79.5675 48.7434 79.2083C48.2747 78.849 47.7383 78.5846 47.1653 78.4302Z" fill="#353535"/>
<path d="M52.4027 98.0116C50.1945 98.049 47.9896 97.8248 45.8357 97.3438C44.3033 96.819 42.9942 95.803 42.1181 94.4587C43.2578 93.0963 43.0407 91.7873 42.5794 91.4133C42.1932 91.0858 41.7211 90.8721 41.2171 90.7965C40.7132 90.7209 40.1979 90.7865 39.7301 90.9859C38.9433 91.4175 38.2368 91.9776 37.6406 92.6422C37.6406 92.6422 33.6516 91.5469 31.8877 91.3332C33.0274 90.4517 33.1631 89.9441 34.0043 88.2077C35.218 85.8576 37.3085 84.0611 39.8378 83.1946C42.3671 82.3281 45.1389 82.4589 47.5725 83.5595C50.4218 84.7082 55.6048 88.9557 52.4027 98.0116Z" fill="#444444"/>
<path d="M19.3499 49.4462C20.5439 46.9352 20.7338 36.597 19.0785 28.7433C15.9579 14.1577 16.3649 9.10881 18.7258 2.77771C20.0012 -0.668336 26.5139 0.800907 34.1663 4.11338C42.66 7.77314 73.3783 21.7176 76.9603 21.8245C86.1867 22.0916 93.5135 21.8245 97.4754 24.2554C102.74 27.5144 93.8663 27.5144 90.8541 28.1288C87.5029 28.895 84.392 30.4538 81.7906 32.6701C80.8137 33.4448 76.6618 35.7956 74.5452 31.7619C73.6997 30.3651 72.511 29.1999 71.0885 28.3737C69.6659 27.5475 68.0551 27.0866 66.4043 27.0336C63.6907 26.8466 52.8361 26.2322 45.8892 25.0301C40.2983 23.6792 35.1918 20.8423 31.1271 16.829C31.1271 16.829 41.059 37.3984 39.268 48.5113C38.5081 53.854 40.1363 56.5253 34.6819 60.9865C29.2275 65.4476 17.6946 64.7798 14.5468 58.9028C11.3989 53.0258 17.8303 52.5984 19.3499 49.4462Z" fill="#E5C3B7"/>
<path d="M34.167 50.5151C36.0427 49.898 38.0713 49.898 39.947 50.5151C49.6076 53.5337 50.4759 58.8764 61.6561 67.2377C68.301 72.3342 73.8379 78.6932 77.9379 85.9371C79.9189 89.1695 78.8605 94.3252 78.6163 96.6225C77.8565 103.301 75.3328 121.146 75.6042 126.007C75.7941 129.801 74.9529 140.459 76.2826 146.042C77.6123 151.626 76.8796 153.87 74.9529 151.893C74.5459 151.492 73.3519 150.023 72.9177 149.595C69.7699 146.31 70.6925 144.68 70.0141 142.596C68.6573 138.483 66.8391 139.418 66.3507 136.586C65.7537 133.247 67.9517 132.632 68.4131 130.014C68.8744 127.396 64.6682 113.265 65.6994 106.64C66.405 102.393 68.4131 98.0651 68.1146 95.1266C67.8161 92.1881 68.1146 89.4633 61.1134 85.0022C54.5898 80.5213 48.446 75.5274 42.7421 70.0693C41.7779 69.271 40.6055 68.7551 39.3582 68.5803C38.1108 68.4056 36.8387 68.579 35.6866 69.0809L34.167 50.5151Z" fill="#E5C3B7"/>
<path d="M15.7955 147.939C15.7794 147.878 15.7794 147.813 15.7955 147.752C15.1713 141.848 17.695 131.724 18.889 126.889C20.5026 120.991 21.1169 114.872 20.7071 108.777C17.8678 109.057 15.0014 108.895 12.2135 108.296C11.9693 111.635 12.5391 113.639 12.4577 116.711C12.4306 122.425 11.9862 128.13 11.128 133.781C10.5035 139.369 10.3854 145.001 10.7753 150.61C10.7753 150.878 10.7753 151.171 10.7753 151.465C12.7898 150.851 14.55 149.615 15.7955 147.939Z" fill="#282828"/>
<path d="M15.1166 154.751C17.8303 154.751 21.2223 155.259 24.0445 155.125C26.8667 154.991 28.0607 153.442 23.8817 151.465C20.1369 149.702 16.2835 149.008 15.7408 147.939C14.5235 149.596 12.8039 150.831 10.8291 151.465C10.9579 152.459 11.4811 153.363 12.2844 153.979C13.0878 154.594 14.106 154.872 15.1166 154.751Z" fill="#E5C3B7"/>
<path d="M26.6229 111.902C27.5998 111.742 28.5767 111.528 29.3365 111.315C30.0963 106.48 32.4843 98.7861 29.6893 93.5235C28.1679 90.6162 26.1061 88.0157 23.6108 85.8567L13.4618 89.2226L10.5039 98.0114C14.5915 100.942 17.7526 104.953 19.6217 109.578C19.9653 110.378 20.2554 111.199 20.4901 112.036C22.5343 112.173 24.5869 112.128 26.6229 111.902Z" fill="#E5C3B7"/>
<path d="M34.0306 154.751C31.7721 154.452 29.6211 153.617 27.7621 152.32C26.4301 153.787 24.7917 154.954 22.959 155.739C23.1264 156.407 23.4624 157.023 23.9359 157.529C27.7039 159.302 31.7506 160.431 35.903 160.868C42.7685 161.082 39.9735 156.033 34.0306 154.751Z" fill="#E5C3B7"/>
<path d="M27.7628 152.32C27.7455 152.259 27.7455 152.194 27.7628 152.133C26.406 145.909 30.7207 132.899 29.7709 126.782C29.1249 122.584 28.943 118.33 29.2282 114.093C29.2282 113.211 29.4182 112.276 29.5538 111.422C28.6855 111.635 27.7086 111.849 26.8402 112.009C24.7731 112.196 22.6931 112.196 20.626 112.009C20.8702 112.944 21.1144 113.959 21.223 114.681C22.3758 119.744 22.7237 124.953 22.2542 130.121C21.6664 136.744 21.6936 143.405 22.3356 150.023C22.3692 151.943 22.5781 153.856 22.9597 155.74C24.7924 154.954 26.4309 153.787 27.7628 152.32Z" fill="#232121"/>
<path d="M23.7192 85.8569C23.7192 85.8569 18.7261 78.2703 18.7261 74.1297C18.7261 65.9821 27.3555 70.3364 31.1274 70.0425C33.7117 70.0821 36.2125 69.1418 38.1119 67.4162C40.0113 65.6906 41.1638 63.312 41.3307 60.773C41.5741 57.7023 40.7513 54.6413 38.997 52.0911C38.997 52.0911 37.4231 60.5325 25.0489 58.8763C21.2312 57.9982 17.8947 55.7258 15.714 52.5185C15.714 52.5185 6.05347 58.0482 2.55289 65.0738C-0.404972 71.0844 -0.160745 84.6281 4.69666 92.0278C7.18411 96.1152 10.6737 99.5228 14.8456 101.938C15.7155 99.2162 17.1998 96.723 19.1874 94.6457C21.5538 92.226 23.1318 89.1656 23.7192 85.8569Z" fill="#232121"/>
<path d="M5.51105 61.6008C5.51105 61.6008 0.0837972 69.1875 4.47988 75.3316C6.81349 78.2363 10.1237 80.2256 13.8148 80.9414C10.8539 79.0346 8.33808 76.5306 6.43369 73.5952C4.23565 69.5882 5.51105 61.6008 5.51105 61.6008Z" fill="#E4AB39"/>
<path d="M7.65429 59.3303C6.75339 62.0967 6.48466 65.0248 6.86734 67.9053C8.02014 70.4664 10.1282 72.4938 12.7559 73.5686C10.6108 71.1352 9.13468 68.2014 8.46838 65.047C8.22415 62.9366 7.65429 59.3303 7.65429 59.3303Z" fill="#E4AB39"/>
<path d="M2.00969 74.8508C1.88802 76.3729 2.17497 77.8997 2.84176 79.2781C3.50856 80.6566 4.53175 81.8382 5.80877 82.7046C8.84804 84.7348 12.1858 85.8568 12.8099 87.8069C13.6783 90.4783 9.74354 91.9208 9.74354 91.9208C9.74354 91.9208 13.217 93.1496 14.7638 91.253C15.2905 90.6364 15.6485 89.8976 15.8037 89.1065C15.959 88.3155 15.9063 87.4986 15.6508 86.7333C15.3953 85.9679 14.9453 85.2795 14.3436 84.7334C13.742 84.1873 13.0086 83.8016 12.2129 83.6129C7.84958 81.9994 4.22582 78.8875 2.00969 74.8508Z" fill="#E4AB39"/>
</svg>
