<svg width="110" height="172" viewBox="0 0 110 172" fill="none" xmlns="http://www.w3.org/2000/svg">
<path d="M45.658 89.707C44.5854 95.1603 43.8782 100.677 43.541 106.221C43.2009 111.968 43.5447 117.734 44.5654 123.403C45.5742 126.946 45.8069 130.657 45.2483 134.293C44.5426 139.181 47.0922 147.504 46.8418 154.757C46.6597 160.068 44.8386 163.147 44.7475 166.138C44.7475 168.369 44.5654 171.962 49.5734 171.873C53.375 171.873 52.5555 170.779 52.7376 166.249C52.9197 161.719 51.7587 160.514 52.3051 155.895C52.8514 151.276 55.4237 136.168 54.627 129.295C53.8907 126.903 53.6128 124.399 53.8075 121.908C54.1717 119.878 57.0627 103.029 60.796 95.1297C62.5488 91.4922 62.7081 85.2216 59.544 84.3066C55.9245 83.347 45.658 89.707 45.658 89.707Z" fill="#E5C3B7"/>
<path d="M108.281 21.8232C105.207 23.4969 102.84 25.3714 99.9946 24.7912C97.1491 24.211 94.4857 27.0227 92.8695 28.0939C91.2533 29.165 76.2292 42.9783 73.9756 44.4288C71.3173 46.0461 68.4654 47.3353 65.4847 48.2671C63.9595 48.5795 59.9758 48.6018 58.8832 47.5084C58.5735 47.1094 58.3985 46.6258 58.3824 46.1248C57.6345 46.5855 56.7975 46.8895 55.9239 47.0174C55.0438 46.9993 54.1787 46.7897 53.3914 46.4038C52.604 46.0179 51.914 45.4652 51.3711 44.7859C51.261 45.4452 50.9425 46.054 50.4606 46.5265C48.7305 47.5976 45.9078 46.3926 42.8119 46.2364C42.3794 48.3117 41.742 50.3647 41.4006 52.4401C41.264 53.3104 41.1047 54.1584 40.9453 54.984C41.1993 56.4581 41.2605 57.9579 41.1274 59.4471C53.8751 55.5196 63.7319 66.3203 63.7319 66.3203C63.7319 66.3203 66.509 63.0622 71.6764 56.2337C75.2731 51.4805 87.4062 41.4832 90.4565 37.578C91.6175 36.1051 97.2857 28.6518 98.7426 28.6518C99.6303 28.6518 101.679 31.1957 102.021 32.9363C102.248 34.0744 103.295 34.4315 103.751 33.8066C104.206 33.1818 102.316 29.3435 103.751 28.6741C105.598 27.7962 107.271 26.6022 108.69 25.1482C110.147 23.5415 109.032 21.3992 108.281 21.8232Z" fill="#E5C3B7"/>
<path d="M48.9131 47.0398C46.4175 46.8988 43.9366 46.5706 41.4921 46.0579C39.3112 45.4435 37.2496 44.4783 35.3914 43.2015C33.1151 41.7733 18.1365 28.0046 16.4975 26.8665C14.8585 25.7284 12.1951 23.0059 9.39519 23.5638C6.59525 24.1217 4.15952 22.3588 1.08641 20.5959C0.335206 20.1272 -0.757455 22.3588 0.767718 23.9432C2.19819 25.3908 3.86838 26.5905 5.70746 27.4914C7.14158 28.0939 5.02455 31.6644 5.70746 32.6016C6.39037 33.5389 7.20987 32.8694 7.43751 31.7313C7.77896 29.9907 9.85047 27.469 10.7155 27.469C12.1268 27.469 17.8633 34.8778 19.0015 36.3953C22.0746 40.2112 34.1394 52.5964 35.3914 54.0022C40.9686 60.5853 43.2449 64.0889 43.2449 64.0889C43.2449 64.0889 64.5746 62.259 61.9112 58.2199C58.639 53.4528 54.1601 49.6004 48.9131 47.0398Z" fill="#232121"/>
<path d="M55.9245 47.0173C56.7981 46.8894 57.6352 46.5855 58.383 46.1248C58.2727 44.3854 58.3797 42.6394 58.7017 40.9255L52.214 40.2114C52.0475 41.716 51.7736 43.2073 51.3945 44.6743C51.9235 45.3713 52.6049 45.9435 53.3887 46.3489C54.1726 46.7543 55.039 46.9827 55.9245 47.0173Z" fill="#D3A197"/>
<path d="M44.5879 96C46.894 93.2406 49.557 90.7876 52.5097 88.7028C53.9394 87.835 55.5627 87.3207 57.2401 87.2041C58.9174 87.0874 60.5985 87.372 62.1388 88.0334C62.1388 84.8869 58.8608 77.0988 59.1112 74.1531C59.3616 71.2075 64.7111 64.9591 65.69 63.7318C64.0737 61.2101 62.0022 54.6271 51.8496 53.8683C42.1978 53.1542 41.1506 59.3803 41.1506 59.3803C41.1506 59.3803 41.8791 68.3065 41.7197 72.4571C41.5376 77.188 40.5815 80.9594 40.5815 83.3471C40.5815 85.3555 36.0288 90.9344 38.9881 92.2733C41.0174 93.2626 42.9011 94.5161 44.5879 96Z" fill="#232121"/>
<path d="M60.7504 22.7158C60.6103 23.2569 60.3138 23.7469 59.8967 24.1269C59.4795 24.507 58.9593 24.7609 58.3985 24.8583C57.8377 24.9557 57.2602 24.8925 56.7351 24.6761C56.2101 24.4597 55.76 24.0994 55.4387 23.6384C55.1174 23.1775 54.9386 22.6354 54.9239 22.0773C54.9091 21.5192 55.0589 20.9688 55.3553 20.4921C55.6517 20.0154 56.0822 19.6327 56.595 19.3898C57.1078 19.147 57.6812 19.0544 58.2464 19.1231C59.0641 19.2747 59.7871 19.7382 60.2565 20.4117C60.726 21.0853 60.9036 21.9139 60.7504 22.7158Z" fill="#353535"/>
<path d="M64.0283 33.9183C63.8917 32.8918 62.8446 32.9364 62.4576 33.0034C62.3438 28.6519 60.1812 25.2376 56.6983 24.8136C53.2155 24.3896 50.0741 27.0451 49.0497 31.2851C48.7083 31.1289 47.6611 30.8165 47.2741 31.7983C47.0098 32.4621 46.9902 33.1955 47.2188 33.8718C47.4474 34.5482 47.9098 35.1251 48.5261 35.5027C48.5279 36.259 48.6429 37.0109 48.8676 37.7343C49.9375 41.0593 52.3277 43.7595 54.1943 43.9827C56.061 44.2058 58.8837 42.2867 60.7731 39.2071C61.1609 38.5571 61.4958 37.8781 61.7747 37.1764C62.4768 36.9728 63.0853 36.5368 63.4962 35.9427C63.9072 35.3486 64.0952 34.6332 64.0283 33.9183Z" fill="#E5C3B7"/>
<path d="M57.7004 27.759C56.6826 29.0184 55.3543 30.0028 53.8409 30.6197C52.3275 31.2366 50.6788 31.4655 49.0502 31.2848L48.3673 31.1063C48.277 28.5525 49.2177 26.0668 50.9851 24.1886C52.4142 22.9656 54.2591 22.3122 56.1557 22.3577C58.0522 22.4031 59.8624 23.144 61.2288 24.4341C62.1963 25.6279 62.8751 27.0213 63.2142 28.5093C63.5533 29.9974 63.5438 31.5414 63.1865 33.0254H62.458C61.3218 32.54 60.3073 31.8172 59.4855 30.9076C58.6638 29.998 58.0546 28.9234 57.7004 27.759Z" fill="#444444"/>
<path d="M65.1211 60.9871C65.5393 59.0768 66.2532 57.2405 67.2381 55.542C69.0434 54.1811 71.0167 53.0489 73.1112 52.1724C73.1112 52.1724 70.2885 55.8321 68.695 57.4165L65.1211 60.9871Z" fill="#D3A197"/>
<path d="M35.8008 52.1725C37.4473 52.2595 39.0654 52.6296 40.5812 53.2659C41.2716 54.0446 41.7077 55.0086 41.8332 56.033C41.8332 56.033 42.9486 53.4891 41.2186 52.1725C40.0348 51.3691 35.8008 52.1725 35.8008 52.1725Z" fill="#D3A197"/>
<path d="M46.8418 127.242C47.6224 127.984 48.6479 128.427 49.7328 128.492C50.255 128.449 50.7609 128.292 51.2138 128.034C51.6666 127.775 52.0549 127.421 52.3506 126.997C52.3506 126.997 52.3506 130.947 49.9377 130.947C47.5247 130.947 46.8418 127.242 46.8418 127.242Z" fill="#D3A197"/>
<path d="M42.5851 69.3329C42.3222 65.3605 42.4136 61.3732 42.8582 57.4164C43.1769 52.2838 41.629 45.4552 42.5168 42.1302C43.622 36.4697 44.0952 30.7081 43.9281 24.9472C43.9281 17.7616 45.6582 10.9107 47.411 9.14778C51.0532 5.46571 53.671 3.36805 53.58 0.556283C53.58 -0.961176 49.4142 0.891016 48.3671 4.3053C47.6614 6.53686 44.7249 4.97477 41.0371 5.39876C37.3494 5.82276 37.3721 7.63032 38.7607 9.7503C39.7279 12.3669 39.8393 15.2139 39.0794 17.8955C36.5464 26.2846 34.794 34.8815 33.8438 43.5807C33.7072 47.5083 31.8633 55.0732 31.0893 60.6298C30.5598 65.0745 30.2786 69.5443 30.2471 74.0192C30.2471 92.251 37.3721 93.032 39.3526 92.2064C41.333 91.3807 45.0208 82.4321 42.5851 69.3329Z" fill="#E5C3B7"/>
<path d="M39.8761 41.4385C39.9418 42.3358 40.3288 43.1815 40.9688 43.8263C41.109 44.5638 41.109 45.3203 40.9688 46.0579C40.9688 46.0579 38.055 45.0983 39.8761 41.4385Z" fill="#D3A197"/>
<path d="M54.2856 70.7166C54.2856 70.2257 53.4889 69.2885 54.2856 68.4852C54.5903 68.1378 54.9717 67.863 55.401 67.6819C55.2493 67.9228 55.1507 68.1922 55.1115 68.4728C55.0723 68.7533 55.0934 69.0388 55.1734 69.3108C55.3512 69.6949 55.4143 70.1204 55.3555 70.5381C55.3555 70.5381 56.4254 69.5563 57.1538 69.5563C57.5675 69.5544 57.98 69.5993 58.3831 69.6902C58.0445 70.1745 57.647 70.6166 57.1994 71.0067C56.7004 71.3024 56.1185 71.4352 55.5376 71.3861L57.1083 71.7654C57.4595 71.9425 57.788 72.1598 58.0872 72.4126C57.4958 72.7594 56.8365 72.9799 56.1522 73.0597C55.884 73.0255 55.6289 72.9258 55.4101 72.7699C55.1914 72.6139 55.0161 72.4067 54.9002 72.1671C54.8542 72.4898 54.7313 72.7974 54.5415 73.0648C54.3516 73.3323 54.1002 73.5523 53.8076 73.7068C53.1019 73.3051 53.8076 72.3233 54.1945 71.7654C53.9441 71.7654 52.8287 71.9663 52.3051 71.5646C52.1544 71.4264 52.0389 71.2555 51.9677 71.0656C51.8965 70.8757 51.8718 70.6722 51.8954 70.4712C52.6998 70.4456 53.504 70.5282 54.2856 70.7166Z" fill="#E4AB39"/>
<path d="M48.7534 75.916C48.2754 76.1392 48.025 77.3888 47.0461 77.255C46.5797 77.226 46.127 77.0883 45.7258 76.8533C46.0144 76.8317 46.2952 76.751 46.5501 76.6165C46.8049 76.4819 47.0282 76.2966 47.2055 76.0723C47.7063 75.3359 48.0933 75.202 48.0933 75.202C48.0933 75.202 46.6591 74.9342 46.2494 74.354C45.9969 74.0333 45.7901 73.6805 45.6348 73.3052C46.231 73.2825 46.8278 73.335 47.4103 73.4614C47.9471 73.6773 48.3955 74.0619 48.6851 74.5548C48.6851 74.5548 48.2071 73.4391 48.0933 73.082C48.0518 72.6963 48.0518 72.3074 48.0933 71.9216C48.0933 71.9216 49.5046 72.5688 49.755 73.082C49.8845 73.3148 49.9524 73.5756 49.9524 73.8407C49.9524 74.1058 49.8845 74.3667 49.755 74.5995C50.0577 74.4601 50.3881 74.3879 50.7225 74.3879C51.0569 74.3879 51.3872 74.4601 51.6899 74.5995C51.6899 75.4028 50.529 75.4251 49.8461 75.4474C50.0054 75.6483 50.8249 76.407 50.8022 77.0541C50.774 77.2528 50.6998 77.4425 50.5854 77.6088C50.471 77.7751 50.3193 77.9136 50.142 78.0137C49.5672 77.3921 49.0983 76.6838 48.7534 75.916Z" fill="#E4AB39"/>
<path d="M59.1795 64.7582C59.0235 64.6379 58.8358 64.5635 58.6383 64.5437C58.4408 64.524 58.2417 64.5596 58.0641 64.6466C57.625 64.7943 57.1622 64.8623 56.6982 64.8475C56.6982 64.8475 57.3356 65.8517 57.9958 65.7624C58.3616 65.7263 58.7131 65.6038 59.0202 65.4054C59.0202 65.4054 58.2689 66.2534 58.3828 66.6774C58.4376 66.9256 58.5534 67.1569 58.72 67.3513C58.8866 67.5457 59.099 67.6974 59.3389 67.7932C59.5437 67.1846 59.6811 66.5561 59.7486 65.9186C60.1356 66.1418 60.1356 66.7443 60.4088 67.0121C60.7453 67.226 61.1264 67.3632 61.5242 67.4138C61.5242 67.4138 61.5242 65.7401 60.2494 65.4054C60.8413 65.2045 61.7291 65.5839 62.0933 65.0037C62.2384 64.7448 62.2815 64.4426 62.2144 64.1547C62.1472 63.8667 61.9745 63.6129 61.7291 63.4415C61.1827 64.2449 61.0461 64.5127 60.1356 64.7136C60.2494 64.4904 60.773 64.2449 60.6364 63.4192C60.6165 63.1443 60.6165 62.8684 60.6364 62.5935C60.1718 62.7273 59.7705 63.0182 59.5038 63.4144C59.2371 63.8107 59.1222 64.2868 59.1795 64.7582Z" fill="#E4AB39"/>
<path d="M48.0483 66.7221C47.8971 66.6011 47.7131 66.5261 47.519 66.5063C47.3249 66.4865 47.1291 66.5227 46.9557 66.6105C46.5199 66.7711 46.0545 66.8395 45.5898 66.8113C45.5898 66.8113 46.2272 67.8156 46.8874 67.7263C47.2478 67.697 47.5936 67.5737 47.889 67.3692C47.889 67.3692 47.1378 68.2173 47.2744 68.6413C47.3292 68.8894 47.445 69.1207 47.6116 69.3152C47.7782 69.5096 47.9906 69.6613 48.2305 69.7571C48.424 69.1455 48.5612 68.5181 48.6402 67.8825C49.0272 68.1057 49.0272 68.7082 49.2776 68.976C49.6235 69.1877 50.0116 69.3246 50.4158 69.3777C50.4158 69.3777 50.4158 67.704 49.141 67.3692C49.7329 67.1684 50.6207 67.5478 50.9849 66.9675C51.13 66.7087 51.1731 66.4065 51.106 66.1185C51.0388 65.8305 50.8661 65.5767 50.6207 65.4054C50.0743 66.2088 49.9377 66.4766 49.0272 66.6774C49.141 66.4543 49.6646 66.2088 49.528 65.3831C49.5081 65.1082 49.5081 64.8323 49.528 64.5574C49.0616 64.6908 48.6578 64.9807 48.3873 65.3764C48.1168 65.7721 47.9969 66.2484 48.0483 66.7221Z" fill="#E4AB39"/>
<path d="M59.1791 72.3901C57.8933 74.0161 56.5018 75.5591 55.0133 77.0095C53.2156 78.7005 51.0176 79.9274 48.6167 80.5801C46.854 81.0834 45.0339 81.3682 43.1989 81.4281L42.9258 83.6597C42.9258 83.6597 46.7956 83.1687 49.55 82.4992C52.4231 81.6625 54.925 79.9016 56.6523 77.5005C57.8432 75.9849 58.7033 74.2454 59.1791 72.3901Z" fill="#E4AB39"/>
<path d="M47.0916 71.2302C47.0871 71.3307 47.0527 71.4276 46.9925 71.509C46.9323 71.5905 46.8491 71.6528 46.7531 71.6882C46.6571 71.7237 46.5526 71.7307 46.4526 71.7085C46.3526 71.6862 46.2614 71.6356 46.1905 71.563C46.1195 71.4904 46.0719 71.399 46.0534 71.3001C46.035 71.2012 46.0466 71.0991 46.0868 71.0066C46.127 70.9141 46.1941 70.8353 46.2796 70.7798C46.3652 70.7243 46.4654 70.6947 46.568 70.6946C46.6387 70.6945 46.7087 70.7085 46.7738 70.7357C46.8388 70.7629 46.8976 70.8027 46.9465 70.8527C46.9954 70.9028 47.0335 70.962 47.0584 71.0269C47.0834 71.0918 47.0947 71.1609 47.0916 71.2302Z" fill="#E4AB39"/>
<path d="M44.4968 67.771C44.4924 67.8714 44.4579 67.9684 44.3978 68.0498C44.3376 68.1312 44.2543 68.1935 44.1584 68.229C44.0624 68.2644 43.9579 68.2715 43.8579 68.2492C43.7579 68.227 43.6667 68.1764 43.5958 68.1038C43.5248 68.0312 43.4771 67.9398 43.4587 67.8409C43.4403 67.742 43.4519 67.6399 43.4921 67.5474C43.5323 67.4549 43.5994 67.376 43.6849 67.3205C43.7704 67.2651 43.8707 67.2354 43.9733 67.2354C44.044 67.2353 44.114 67.2493 44.179 67.2764C44.2441 67.3036 44.3029 67.3434 44.3518 67.3935C44.4007 67.4436 44.4388 67.5028 44.4637 67.5677C44.4887 67.6326 44.4999 67.7017 44.4968 67.771Z" fill="#E4AB39"/>
<path d="M59.9759 69.7571C59.9759 69.8933 59.9207 70.0238 59.8225 70.1201C59.7243 70.2164 59.5911 70.2705 59.4523 70.2705C59.3134 70.2705 59.1803 70.2164 59.0821 70.1201C58.9839 70.0238 58.9287 69.8933 58.9287 69.7571C58.9287 69.6209 58.9839 69.4903 59.0821 69.394C59.1803 69.2977 59.3134 69.2437 59.4523 69.2437C59.5911 69.2437 59.7243 69.2977 59.8225 69.394C59.9207 69.4903 59.9759 69.6209 59.9759 69.7571Z" fill="#E4AB39"/>
<path d="M56.4475 62.5269C56.4475 62.663 56.3924 62.7936 56.2942 62.8899C56.196 62.9862 56.0628 63.0403 55.924 63.0403C55.7851 63.0403 55.6519 62.9862 55.5537 62.8899C55.4556 62.7936 55.4004 62.663 55.4004 62.5269C55.4004 62.3907 55.4556 62.2601 55.5537 62.1638C55.6519 62.0675 55.7851 62.0134 55.924 62.0134C56.0628 62.0134 56.196 62.0675 56.2942 62.1638C56.3924 62.2601 56.4475 62.3907 56.4475 62.5269Z" fill="#E4AB39"/>
<path d="M61.3197 60.4738C61.3243 60.5806 61.2961 60.6862 61.2389 60.7772C61.1817 60.8682 61.0981 60.9403 60.9987 60.9843C60.8994 61.0283 60.7889 61.0421 60.6815 61.024C60.574 61.0059 60.4746 60.9568 60.3959 60.8828C60.3172 60.8089 60.2628 60.7135 60.2398 60.6091C60.2168 60.5046 60.2262 60.3958 60.2668 60.2966C60.3074 60.1974 60.3774 60.1124 60.4676 60.0525C60.5579 59.9926 60.6644 59.9605 60.7734 59.9604C60.8441 59.9574 60.9146 59.9685 60.9808 59.9929C61.0469 60.0174 61.1074 60.0547 61.1584 60.1027C61.2095 60.1506 61.2501 60.2083 61.2778 60.272C61.3056 60.3358 61.3198 60.4044 61.3197 60.4738Z" fill="#E4AB39"/>
<path d="M64.5745 63.5757C64.5745 63.7119 64.5193 63.8424 64.4211 63.9387C64.323 64.035 64.1898 64.0891 64.0509 64.0891C63.9121 64.0891 63.7789 64.035 63.6807 63.9387C63.5825 63.8424 63.5273 63.7119 63.5273 63.5757C63.5273 63.4395 63.5825 63.3089 63.6807 63.2126C63.7789 63.1163 63.9121 63.0623 64.0509 63.0623C64.1898 63.0623 64.323 63.1163 64.4211 63.2126C64.5193 63.3089 64.5745 63.4395 64.5745 63.5757Z" fill="#E4AB39"/>
<path d="M46.0452 78.6608C46.0452 78.7969 45.99 78.9275 45.8918 79.0237C45.7937 79.12 45.6605 79.1741 45.5216 79.1741C45.3828 79.1741 45.2496 79.12 45.1514 79.0237C45.0532 78.9275 44.998 78.7969 44.998 78.6608C44.998 78.5246 45.0532 78.3941 45.1514 78.2978C45.2496 78.2015 45.3828 78.1475 45.5216 78.1475C45.6605 78.1475 45.7937 78.2015 45.8918 78.2978C45.99 78.3941 46.0452 78.5246 46.0452 78.6608Z" fill="#E4AB39"/>
<path d="M53.3069 75.4253C53.3069 75.5615 53.2517 75.6921 53.1535 75.7883C53.0554 75.8846 52.9222 75.9387 52.7833 75.9387C52.6445 75.9387 52.5113 75.8846 52.4131 75.7883C52.3149 75.6921 52.2598 75.5615 52.2598 75.4253C52.2598 75.2891 52.3149 75.1585 52.4131 75.0622C52.5113 74.966 52.6445 74.9119 52.7833 74.9119C52.9222 74.9119 53.0554 74.966 53.1535 75.0622C53.2517 75.1585 53.3069 75.2891 53.3069 75.4253Z" fill="#E4AB39"/>
<path d="M54.1033 66.3207C54.0988 66.4211 54.0644 66.5181 54.0042 66.5996C53.944 66.681 53.8608 66.7433 53.7648 66.7788C53.6688 66.8143 53.5644 66.8213 53.4643 66.799C53.3643 66.7768 53.2732 66.7262 53.2022 66.6536C53.1312 66.581 53.0836 66.4895 53.0652 66.3906C53.0467 66.2916 53.0583 66.1896 53.0986 66.097C53.1388 66.0045 53.2058 65.9256 53.2913 65.8701C53.3769 65.8146 53.4772 65.785 53.5797 65.7849C53.6504 65.7848 53.7204 65.7988 53.7855 65.826C53.8505 65.8532 53.9093 65.893 53.9582 65.9431C54.0072 65.9932 54.0452 66.0524 54.0702 66.1173C54.0951 66.1822 54.1064 66.2514 54.1033 66.3207Z" fill="#E4AB39"/>
</svg>
