<svg width="137" height="191" viewBox="0 0 137 191" fill="none" xmlns="http://www.w3.org/2000/svg">
<path d="M70.4861 50.2262C70.0119 48.8282 71.1277 40.7961 72.9687 39.261C72.9687 39.261 73.4987 38.5208 76.6507 39.0417C78.4396 39.5344 79.9614 40.6954 80.8906 42.2764C81.4485 43.4278 82.0622 43.4826 83.0943 43.8116C84.2741 44.0465 85.4117 44.453 86.4694 45.0177C86.8879 45.4289 86.0231 46.1691 85.8837 46.6351C85.7442 47.1011 85.8837 47.7316 86.3579 47.8413C86.8321 47.951 86.6647 48.3896 86.4973 48.8008C86.9436 48.8008 86.9436 49.1845 86.8042 49.5683C86.6647 49.9521 86.6089 49.9521 87.111 50.5004C87.6131 51.0486 87.111 52.5838 86.1068 53.2417C85.1026 53.8996 84.9074 53.8996 84.489 54.0915C84.0706 54.2834 82.3132 54.9961 81.8669 55.1332C80.4164 55.5718 80.277 56.6409 80.277 57.7101C80.277 58.7792 84.6284 61.7946 85.2142 62.6993C85.4653 64.2618 81.2811 65.7695 81.2811 65.7695H69.7051C70.4024 65.0842 72.9687 64.9745 73.8892 63.4668C74.4572 62.829 74.7995 62.0275 74.8649 61.1823C74.9303 60.3372 74.7152 59.494 74.2518 58.7792C72.569 56.129 71.2997 53.246 70.4861 50.2262Z" fill="#E5C3B7"/>
<path d="M83.931 64.5632C82.2968 62.473 81.0504 60.116 80.249 57.6004C80.249 56.5313 80.3885 55.4622 81.839 55.0236C82.2853 54.8866 84.461 53.9819 84.461 53.9819C83.918 54.2432 83.4629 54.6523 83.15 55.1607C82.8711 55.5719 82.1458 58.4228 85.9394 62.0687C85.3436 62.955 84.6717 63.7896 83.931 64.5632Z" fill="#D3A197"/>
<path d="M59.1895 46.0595C59.195 46.8879 59.4499 47.6961 59.9222 48.3822C60.3945 49.0683 61.063 49.6016 61.8433 49.9149C62.6236 50.2281 63.4808 50.3073 64.3068 50.1424C65.1328 49.9774 65.8907 49.5758 66.4848 48.9882C67.0788 48.4005 67.4825 47.6532 67.645 46.8403C67.8074 46.0275 67.7213 45.1856 67.3974 44.4208C67.0736 43.656 66.5266 43.0025 65.8254 42.5429C65.1242 42.0832 64.3001 41.8379 63.4572 41.8379C62.3228 41.8451 61.2373 42.2931 60.4378 43.084C59.6382 43.875 59.1894 44.9446 59.1895 46.0595Z" fill="#353535"/>
<path d="M75.3122 38.8775C75.9117 40.8468 76.2584 42.882 76.3443 44.9358C76.2663 46.4397 75.6656 47.8718 74.6427 48.9929C73.0807 48.335 71.9928 48.8284 71.6859 49.3767C71.461 49.817 71.3753 50.3134 71.4399 50.8019C71.5045 51.2905 71.7165 51.7489 72.0486 52.118C72.6329 52.7187 73.3227 53.2109 74.0848 53.5709C74.0848 53.5709 74.0848 57.4361 74.3638 59.0535C73.3414 58.3665 72.1425 57.977 70.9049 57.9295C68.7004 57.518 66.7201 56.3406 65.3261 54.6126C64.438 53.5814 63.7865 52.3743 63.4159 51.0734C63.0452 49.7725 62.9642 48.4084 63.1782 47.074C63.4293 44.0586 66.0234 38.3019 75.3122 38.8775Z" fill="#444444"/>
<path d="M25.8001 62.5624C25.8001 62.5624 23.4012 59.9855 21.6439 59.821C19.8865 59.6565 15.5072 62.1512 13.7498 62.1512C11.9925 62.1512 7.72471 62.4801 9.37046 63.4944C10.7541 64.2774 12.3634 64.586 13.9451 64.3716C15.8779 64.0023 17.8358 63.7732 19.8028 63.6863C21.0186 64.2081 22.1397 64.9211 23.1222 65.7971L25.8001 62.5624Z" fill="#E5C3B7"/>
<path d="M54.8382 118.183C53.9177 122.597 52.5509 133.973 51.6025 136.084C49.6499 140.47 46.7489 145.377 46.4142 151.298C46.1631 155.575 45.4658 175.12 43.9037 178.383C42.8716 180.521 42.6485 182.769 43.9037 183.591C46.0516 185.071 48.311 183.783 50.3194 183.591C52.4123 183.485 54.4928 183.21 56.5398 182.769C58.2692 182.275 60.9191 180.795 58.5203 180.027C57.1813 179.534 51.463 179.013 50.9609 176.683C50.2078 173.092 55.7866 153.162 56.5398 149.654C57.2092 146.556 58.8829 145.734 61.7839 140.059C62.4812 138.688 63.7922 136.358 65.2427 133.864C63.5133 131.725 55.3124 121.089 54.8382 118.183Z" fill="#E5C3B7"/>
<path d="M57.9344 107.849C57.9344 107.849 56.1492 114.537 55.145 116.621C55.145 116.922 54.8939 117.471 54.7266 118.183C56.562 124.258 60.1814 129.665 65.1311 133.727C67.9205 128.847 71.3515 123.31 71.3515 123.31L57.9344 107.849Z" fill="#D3A197"/>
<path d="M57.8781 103.792C57.0326 105.592 56.5947 107.552 56.5947 109.535C56.5947 111.518 57.0326 113.477 57.8781 115.278C62.2856 122.522 67.95 128.951 74.6145 134.275C77.8236 136.6 80.7445 139.287 83.3175 142.28C83.5923 146.305 83.5923 150.344 83.3175 154.369C83.3175 156.836 85.6327 170.049 85.4374 171.858C84.8449 173.238 83.8804 174.432 82.648 175.312C81.588 175.97 80.1655 178.246 81.8949 179.753C82.9828 180.713 85.2422 182.029 85.9395 183.344C86.6146 184.948 87.2013 186.586 87.6969 188.251C87.9688 188.829 88.4069 189.316 88.9571 189.652C89.5073 189.988 90.1455 190.159 90.7931 190.143H95.9814C97.4877 190.143 97.5714 188.882 96.2325 187.785C95.0198 186.958 93.6404 186.397 92.1878 186.14C91.1836 186.14 92.6899 176.902 91.4347 172.434C90.1794 167.966 91.4347 159.988 91.4347 156.205C91.9108 152.101 92.6751 148.035 93.722 144.034C94.1012 142.686 94.1471 141.269 93.856 139.901C93.5649 138.532 92.9451 137.252 92.0483 136.167C89.2589 132.164 78.1013 113.222 76.4276 111.495C74.754 109.768 67.1668 99.5701 57.8781 103.792Z" fill="#E5C3B7"/>
<path d="M113.946 23.0328C114.434 22.9654 114.932 23.0476 115.371 23.2684C115.81 23.4891 116.17 23.8376 116.4 24.2663C117.014 25.4998 117.907 25.1435 117.404 26.7334C117.042 27.8573 121.17 30.2421 121.505 29.1456C121.969 27.55 122.81 26.0847 123.96 24.8694C124.54 23.6335 125.007 22.3492 125.354 21.0317C125.354 21.0317 119.496 19.2499 119.022 19.7981C118.548 20.3464 114.029 21.4154 112.607 22.2378C111.937 22.6216 113.388 23.0328 113.946 23.0328Z" fill="#E5C3B7"/>
<path d="M63.2344 64.8924C64.7362 64.0208 66.4171 63.4897 68.1544 63.338C69.8917 63.1862 71.6416 63.4176 73.2763 64.0152C81.3377 66.7565 85.8844 64.4538 84.7966 60.6708C85.3322 61.0884 85.9543 61.3858 86.6193 61.5421C87.2843 61.6983 87.976 61.7097 88.646 61.5754C89.678 61.3561 90.3196 60.5337 92.3001 58.8341C95.6753 56.0928 106.247 54.2287 109.734 47.8689C112.189 43.2909 113.806 33.148 117.405 26.6511C118.524 27.8474 119.936 28.7437 121.505 29.2554C119.553 36.6021 118.214 47.5673 116.345 53.0773C115.145 56.6136 108.925 62.5897 104.601 65.1939C101.282 67.1951 95.7032 68.2368 95.9821 72.9518C96.3726 79.9148 92.8859 89.3997 87.3349 98.9669C84.5455 103.737 83.7924 108.644 78.632 114.866C70.8216 111.796 63.3181 117.388 56.3167 107.438C59.7198 98.7201 61.8955 98.1445 69.1759 94.5259C71.9653 93.1279 72.6347 89.2352 71.4353 85.5893C69.7338 80.463 69.8174 77.6943 67.4185 76.6526C66.0452 75.8717 64.4743 75.4905 62.8889 75.5536C61.3035 75.6167 59.7691 76.1215 58.4645 77.009C54.336 78.4478 50.0766 79.4942 45.7448 80.1341C42.6486 80.7372 27.502 71.9101 21.7559 65.1117C22.5222 63.6531 23.5634 62.3507 24.8242 61.2739C27.3905 62.5074 34.894 67.1677 38.9665 69.0043C42.5928 70.6217 45.5217 73.0615 46.8048 72.2665C54.0573 67.6337 59.6361 66.9484 63.2344 64.8924Z" fill="#232121"/>
<path d="M68.7012 77.5024C70.7508 80.7434 73.1957 83.7261 75.9815 86.3843C79.4009 88.6812 81.9201 92.0564 83.1224 95.9515C84.5171 100.639 82.3135 109.384 82.3135 109.384L80.5841 112.125C80.5841 112.125 82.453 102.969 81.114 98.172C79.7751 93.3747 72.4669 89.948 71.9648 87.7824C71.0699 84.2994 69.9804 80.8676 68.7012 77.5024Z" fill="#E4AB39"/>
<path d="M71.9089 94.4988C71.5433 97.9394 72.5425 101.386 74.6983 104.121C76.7158 107.379 78.0705 110.991 78.6872 114.757C78.6872 114.757 80.9466 106.204 78.3525 103.49C75.7583 100.827 73.5862 97.7963 71.9089 94.4988Z" fill="#E4AB39"/>
<path d="M78.5199 67.634C78.5199 67.634 77.0136 74.9258 79.3009 78.5991C82.1569 82.9684 84.4171 87.6871 86.0234 92.6345C86.1544 96.4898 85.7509 100.345 84.824 104.093C84.824 104.093 86.7487 99.8715 87.3344 98.8298C89.2312 95.4306 88.1434 85.6442 84.7682 79.3667C81.393 73.0892 78.5199 67.634 78.5199 67.634Z" fill="#E4AB39"/>
<path d="M118.548 18.2903C117.795 18.2903 115.145 19.1949 117.153 20.8396C119.194 22.0809 121.56 22.7097 123.959 22.6488C125.856 22.6762 128.59 18.2903 118.548 18.2903Z" fill="#E5C3B7"/>
<path d="M102 17.3081C102 16.8093 103.418 16.3508 105.785 15.9904C103.541 15.1687 102.244 14.4536 102.346 13.9491C102.449 13.4445 103.947 13.3003 106.354 13.407C104.311 12.147 103.174 11.1724 103.383 10.7053C103.562 10.2959 104.778 10.3565 106.698 10.7976C105.268 9.46551 104.546 8.49096 104.798 8.12766C105.051 7.76436 106.53 8.09594 108.724 9.08203C107.285 7.17617 106.618 5.8585 106.991 5.51539C107.364 5.17227 108.674 5.80372 110.606 7.19924C109.61 5.06271 109.217 3.64412 109.634 3.37021C110.051 3.09629 111.24 4.01318 112.864 5.76912C112.323 3.46247 112.229 1.98622 112.702 1.79881C113.128 1.63446 113.941 2.52252 114.983 4.166C114.931 2.2313 115.113 1.04915 115.571 0.959766C116.064 0.855967 116.81 2.13904 117.652 4.36206C118.019 2.01794 118.489 0.61377 119 0.61377C119.511 0.61377 119.975 2.00641 120.342 4.33035C121.179 2.1275 121.921 0.870384 122.421 0.953999C122.92 1.03762 123.093 2.5254 122.973 4.88971C124.253 2.8714 125.248 1.77286 125.718 1.97181C126.135 2.14769 126.076 3.34426 125.624 5.22706C126.98 3.82289 127.973 3.11359 128.343 3.35868C128.768 3.64701 128.375 5.06271 127.371 7.21654C129.306 5.80372 130.659 5.14921 131.02 5.51539C131.382 5.88157 130.706 7.16752 129.306 9.06473C131.484 8.08729 132.926 7.70093 133.205 8.11901C133.484 8.53709 132.535 9.69618 130.75 11.282C133.099 10.7515 134.602 10.6592 134.793 11.1234C134.961 11.5415 134.056 12.3402 132.383 13.3637C134.353 13.3118 135.557 13.4906 135.648 13.9404C135.753 14.4334 134.447 15.1658 132.186 15.9933C134.57 16.3537 136.003 16.8151 136.003 17.3167C136.003 17.8184 134.585 18.274 132.218 18.6344C134.461 19.4562 135.742 20.1856 135.656 20.6758C135.571 21.166 134.056 21.3361 131.649 21.2179C133.704 22.475 134.823 23.4524 134.62 23.9137C134.441 24.3232 133.222 24.2626 131.305 23.8215C132.735 25.1536 133.457 26.1281 133.208 26.4914C132.914 26.9095 131.473 26.5231 129.279 25.5371C130.706 27.4487 131.384 28.7664 131.023 29.121C130.662 29.4756 129.326 28.8038 127.394 27.4285C128.39 29.5679 128.783 30.9836 128.357 31.2575C127.932 31.5314 126.751 30.6145 125.128 28.8586C125.668 31.1653 125.762 32.6415 125.289 32.8289C124.863 32.9933 124.05 32.1052 123.008 30.4617C123.061 32.3964 122.879 33.5786 122.421 33.668C121.921 33.7718 121.173 32.4887 120.33 30.2686C119.963 32.6098 119.493 34.0168 118.982 34.0168C118.472 34.0168 118.008 32.6242 117.641 30.3003C116.821 32.4887 116.093 33.7718 115.579 33.6622C115.066 33.5526 114.919 32.0908 115.027 29.7351C113.747 31.7535 112.752 32.852 112.285 32.653C111.865 32.4772 111.927 31.2835 112.376 29.3978C111.02 30.802 110.027 31.5113 109.657 31.2662C109.287 31.0211 109.634 29.5535 110.629 27.3997C108.683 28.801 107.341 29.467 106.98 29.1123C106.618 28.7577 107.285 27.4487 108.706 25.5515C106.53 26.5289 105.086 26.9153 104.807 26.4972C104.528 26.0791 105.462 24.92 107.25 23.3256C104.901 23.8561 103.398 23.9483 103.207 23.4813C103.039 23.0661 103.944 22.2674 105.617 21.2438C103.647 21.2957 102.443 21.1169 102.352 20.6672C102.247 20.1914 103.553 19.459 105.817 18.6315C103.43 18.2711 102 17.8098 102 17.3081Z" fill="#E4AB39"/>
<path d="M0 62.4811C0 61.9823 1.41813 61.5238 3.78463 61.1634C1.54145 60.3416 0.243696 59.6266 0.346459 59.122C0.449223 58.6174 1.94663 58.4733 4.35423 58.5799C2.31071 57.3199 1.17444 56.3454 1.3829 55.8783C1.562 55.4688 2.77755 55.5294 4.69775 55.9705C3.26788 54.6384 2.5456 53.6639 2.7981 53.3006C3.0506 52.9373 4.5304 53.2688 6.72366 54.2549C5.28497 52.3491 4.61848 51.0314 4.99136 50.6883C5.36425 50.3452 6.67375 50.9766 8.6057 52.3721C7.61036 50.2356 7.21692 48.817 7.63385 48.5431C8.05078 48.2692 9.23989 49.1861 10.8636 50.942C10.3233 48.6353 10.2294 47.1591 10.7021 46.9717C11.1278 46.8073 11.9411 47.6954 12.9834 49.3389C12.9306 47.4042 13.1126 46.222 13.5706 46.1326C14.0639 46.0288 14.8097 47.3119 15.6523 49.5349C16.0193 47.1908 16.4891 45.7866 17 45.7866C17.5109 45.7866 17.9748 47.1793 18.3418 49.5032C19.1786 47.3004 19.9214 46.0432 20.4205 46.1269C20.9197 46.2105 21.0929 47.6983 20.9725 50.0626C22.2527 48.0443 23.248 46.9457 23.7178 47.1447C24.1347 47.3205 24.076 48.5171 23.6238 50.3999C24.9803 48.9958 25.9727 48.2865 26.3427 48.5315C26.7684 48.8199 26.375 50.2356 25.3708 52.3894C27.3057 50.9766 28.6592 50.3221 29.0204 50.6883C29.3815 51.0545 28.7062 52.3404 27.3057 54.2376C29.4843 53.2602 30.9259 52.8738 31.2048 53.2919C31.4838 53.71 30.5354 54.8691 28.7503 56.4549C31.0991 55.9244 32.6024 55.8321 32.7933 56.2963C32.9606 56.7144 32.0563 57.5131 30.3827 58.5367C32.3528 58.4848 33.5566 58.6636 33.6477 59.1133C33.7534 59.6064 32.4468 60.3388 30.186 61.1663C32.5701 61.5267 34.0029 61.988 34.0029 62.4897C34.0029 62.9914 32.5848 63.447 30.2183 63.8074C32.4615 64.6291 33.7416 65.3586 33.6565 65.8488C33.5713 66.339 32.0563 66.5091 29.6487 66.3909C31.704 67.648 32.8226 68.6254 32.62 69.0868C32.4409 69.4962 31.2224 69.4357 29.3052 68.9945C30.7351 70.3266 31.4573 71.3012 31.2078 71.6645C30.9142 72.0825 29.4725 71.6962 27.2793 70.7101C28.7062 72.6217 29.3845 73.9394 29.0233 74.2941C28.6622 74.6487 27.3262 73.9769 25.3943 72.6015C26.3896 74.741 26.7831 76.1567 26.3573 76.4306C25.9316 76.7045 24.7513 75.7876 23.1276 74.0317C23.6679 76.3383 23.7618 77.8146 23.2891 78.002C22.8634 78.1664 22.0501 77.2783 21.0078 75.6348C21.0606 77.5695 20.8786 78.7517 20.4205 78.8411C19.9214 78.9449 19.1727 77.6618 18.33 75.4416C17.963 77.7829 17.4933 79.1899 16.9824 79.1899C16.4715 79.1899 16.0076 77.7973 15.6406 75.4733C14.8214 77.6618 14.0933 78.9449 13.5794 78.8353C13.0656 78.7257 12.9188 77.2639 13.0275 74.9082C11.7473 76.9265 10.752 78.0251 10.2851 77.8261C9.86528 77.6502 9.92694 76.4565 10.3762 74.5709C9.01969 75.975 8.02729 76.6843 7.65734 76.4392C7.28739 76.1942 7.63385 74.7266 8.62919 72.5727C6.68255 73.974 5.34076 74.6401 4.97962 74.2854C4.61848 73.9308 5.28497 72.6217 6.70604 70.7245C4.5304 71.7019 3.08584 72.0883 2.80691 71.6702C2.52798 71.2521 3.46166 70.0931 5.24974 68.4986C2.90086 69.0291 1.39758 69.1214 1.20674 68.6543C1.03938 68.2391 1.9437 67.4404 3.61727 66.4168C1.64715 66.4687 0.443351 66.2899 0.352332 65.8401C0.246632 65.3644 1.55319 64.632 3.81693 63.8045C1.42988 63.4441 0 62.9828 0 62.4811Z" fill="#E4AB39"/>
</svg>
